<?xml version="1.0" encoding="utf-8"?>
<!-- Generator: Adobe Illustrator 16.0.0, SVG Export Plug-In . SVG Version: 6.00 Build 0)  -->
<!DOCTYPE svg PUBLIC "-//W3C//DTD SVG 1.1//EN" "http://www.w3.org/Graphics/SVG/1.1/DTD/svg11.dtd">
<svg version="1.1" id="Слой_1" xmlns="http://www.w3.org/2000/svg" xmlns:xlink="http://www.w3.org/1999/xlink" x="0px" y="0px"
	 width="16px" height="16px" viewBox="0 0 16 16" enable-background="new 0 0 16 16" xml:space="preserve">
<path fill="#FFFFFF" d="M8,0C3.582,0,0,3.582,0,8s3.582,8,8,8s8-3.582,8-8S12.418,0,8,0z M8,14.607c-3.65,0-6.609-2.959-6.609-6.607
	C1.391,4.351,4.35,1.392,8,1.392c3.65,0,6.609,2.959,6.609,6.608C14.609,11.648,11.65,14.607,8,14.607z M10.609,7.305H8.695V5.392
	c0-0.288-0.233-0.522-0.521-0.522H7.826c-0.288,0-0.522,0.234-0.522,0.522v1.913H5.391c-0.288,0-0.521,0.233-0.521,0.521v0.348
	c0,0.288,0.233,0.521,0.521,0.521h1.913v1.912c0,0.289,0.234,0.522,0.522,0.522h0.348c0.288,0,0.521-0.233,0.521-0.522V8.695h1.914
	c0.287,0,0.521-0.233,0.521-0.521V7.826C11.131,7.538,10.896,7.305,10.609,7.305z"/>
</svg>
