<?xml version="1.0" encoding="utf-8"?>
<!-- Generator: Adobe Illustrator 16.0.0, SVG Export Plug-In . SVG Version: 6.00 Build 0)  -->
<!DOCTYPE svg PUBLIC "-//W3C//DTD SVG 1.1//EN" "http://www.w3.org/Graphics/SVG/1.1/DTD/svg11.dtd">
<svg version="1.1" id="Слой_1" xmlns="http://www.w3.org/2000/svg" xmlns:xlink="http://www.w3.org/1999/xlink" x="0px" y="0px"
	 width="25px" height="25px" viewBox="0 0 25 25" enable-background="new 0 0 25 25" xml:space="preserve">
<g>
	<path fill="#ED1C24" d="M21.338,3.662C18.977,1.3,15.838,0,12.5,0C9.162,0,6.022,1.3,3.662,3.662C1.3,6.022,0,9.162,0,12.5
		c0,3.339,1.3,6.478,3.662,8.839C6.023,23.7,9.162,25,12.5,25c3.338,0,6.478-1.3,8.838-3.661C23.699,18.978,25,15.839,25,12.5
		C25,9.162,23.699,6.022,21.338,3.662z M2.679,12.5c0-2.623,1.021-5.09,2.877-6.944C7.411,3.701,9.878,2.679,12.5,2.679
		c2.171,0,4.227,0.709,5.928,2L4.68,18.427C3.387,16.729,2.679,14.672,2.679,12.5z M19.443,19.445
		c-1.854,1.855-4.32,2.877-6.943,2.877c-2.171,0-4.228-0.709-5.927-2L20.319,6.575c1.292,1.699,2.001,3.756,2.001,5.927
		C22.321,15.123,21.299,17.59,19.443,19.445z"/>
</g>
</svg>
