<?xml version="1.0" encoding="utf-8"?>
<!-- Generator: Adobe Illustrator 16.0.0, SVG Export Plug-In . SVG Version: 6.00 Build 0)  -->
<!DOCTYPE svg PUBLIC "-//W3C//DTD SVG 1.1//EN" "http://www.w3.org/Graphics/SVG/1.1/DTD/svg11.dtd">
<svg version="1.1" id="Слой_1" xmlns="http://www.w3.org/2000/svg" xmlns:xlink="http://www.w3.org/1999/xlink" x="0px" y="0px"
	 width="25.001px" height="25.001px" viewBox="0 0 25.001 25.001" enable-background="new 0 0 25.001 25.001" xml:space="preserve">
<path fill="#356732" d="M12.501,0C5.608,0,0,5.608,0,12.501s5.608,12.5,12.501,12.5c6.893,0,12.5-5.608,12.5-12.5S19.394,0,12.501,0
	z M12.501,22.457c-5.49,0-9.956-4.466-9.956-9.956s4.466-9.956,9.956-9.956c5.49,0,9.956,4.466,9.956,9.956
	S17.99,22.457,12.501,22.457z"/>
<path fill="#356732" d="M19.669,8.404l-1.597-1.597c-0.113-0.112-0.312-0.112-0.424,0l-7.553,7.553L7.354,11.62
	c-0.112-0.113-0.312-0.113-0.425,0l-1.597,1.597c-0.056,0.056-0.088,0.132-0.088,0.212c0,0.08,0.031,0.156,0.088,0.212l4.55,4.55
	c0.059,0.059,0.135,0.088,0.212,0.088c0.076,0,0.154-0.029,0.212-0.088l9.362-9.362c0.057-0.057,0.088-0.133,0.088-0.212
	S19.726,8.46,19.669,8.404z"/>
</svg>
