<?xml version="1.0" encoding="utf-8"?>
<!-- Generator: Adobe Illustrator 16.0.0, SVG Export Plug-In . SVG Version: 6.00 Build 0)  -->
<!DOCTYPE svg PUBLIC "-//W3C//DTD SVG 1.1//EN" "http://www.w3.org/Graphics/SVG/1.1/DTD/svg11.dtd">
<svg version="1.1" id="Слой_1" xmlns="http://www.w3.org/2000/svg" xmlns:xlink="http://www.w3.org/1999/xlink" x="0px" y="0px"
	 width="16.006px" height="17.006px" viewBox="0 0 16.006 17.006" enable-background="new 0 0 16.006 17.006" xml:space="preserve">
<g>
	<path fill="#FFFFFF" d="M9.332,8.503l6.399-6.799c0.366-0.39,0.366-1.022,0-1.411c-0.366-0.39-0.962-0.39-1.328,0L8.004,7.092
		L1.603,0.292c-0.366-0.39-0.962-0.39-1.328,0c-0.366,0.389-0.366,1.021,0,1.411l6.4,6.799l-6.4,6.8
		c-0.366,0.389-0.366,1.021,0,1.411c0.184,0.194,0.424,0.292,0.664,0.292c0.241,0,0.48-0.098,0.664-0.292l6.4-6.8l6.399,6.8
		c0.184,0.194,0.424,0.292,0.664,0.292s0.481-0.098,0.664-0.292c0.367-0.39,0.367-1.022,0-1.411L9.332,8.503z"/>
</g>
</svg>
