<?xml version="1.0" encoding="utf-8"?>
<!-- Generator: Adobe Illustrator 16.0.0, SVG Export Plug-In . SVG Version: 6.00 Build 0)  -->
<!DOCTYPE svg PUBLIC "-//W3C//DTD SVG 1.1//EN" "http://www.w3.org/Graphics/SVG/1.1/DTD/svg11.dtd">
<svg version="1.1" id="Слой_1" xmlns="http://www.w3.org/2000/svg" xmlns:xlink="http://www.w3.org/1999/xlink" x="0px" y="0px"
	 width="10px" height="10px" viewBox="0 0 10 10" enable-background="new 0 0 10 10" xml:space="preserve">
<g>
	<path d="M5.678,5l4.182-4.182c0.188-0.188,0.188-0.491,0-0.678c-0.188-0.188-0.491-0.188-0.679,0L5,4.321L0.818,0.141
		c-0.187-0.188-0.491-0.188-0.678,0c-0.187,0.188-0.187,0.491,0,0.679l4.181,4.182l-4.18,4.18c-0.188,0.188-0.188,0.491,0,0.679
		C0.235,9.953,0.357,10,0.48,10c0.123,0,0.245-0.047,0.338-0.141L5,5.678l4.181,4.182C9.275,9.953,9.396,10,9.52,10
		s0.246-0.047,0.339-0.141c0.188-0.188,0.188-0.491,0-0.679L5.678,5z"/>
</g>
</svg>
