<?xml version="1.0" encoding="utf-8"?>
<!-- Generator: Adobe Illustrator 16.0.0, SVG Export Plug-In . SVG Version: 6.00 Build 0)  -->
<!DOCTYPE svg PUBLIC "-//W3C//DTD SVG 1.1//EN" "http://www.w3.org/Graphics/SVG/1.1/DTD/svg11.dtd">
<svg version="1.1" id="Слой_1" xmlns="http://www.w3.org/2000/svg" xmlns:xlink="http://www.w3.org/1999/xlink" x="0px" y="0px"
	 width="16px" height="16px" viewBox="0 0 16 16" enable-background="new 0 0 16 16" xml:space="preserve">
<path fill="#FFFFFF" d="M8.5,0c-4.418,0-8,3.582-8,8s3.582,8,8,8s8-3.582,8-8S12.918,0,8.5,0z M8.5,14.607
	c-3.65,0-6.608-2.959-6.608-6.607c0-3.649,2.958-6.608,6.608-6.608c3.648,0,6.607,2.959,6.607,6.608
	C15.107,11.648,12.148,14.607,8.5,14.607z M11.107,7.305H9.195h-1.39H5.892c-0.288,0-0.522,0.233-0.522,0.521v0.348
	c0,0.288,0.234,0.521,0.522,0.521h1.913h1.39h1.914c0.287,0,0.521-0.233,0.521-0.521V7.826C11.631,7.538,11.396,7.305,11.107,7.305z
	"/>
</svg>
