<?xml version="1.0" encoding="utf-8"?>
<!-- Generator: Adobe Illustrator 16.0.0, SVG Export Plug-In . SVG Version: 6.00 Build 0)  -->
<!DOCTYPE svg PUBLIC "-//W3C//DTD SVG 1.1//EN" "http://www.w3.org/Graphics/SVG/1.1/DTD/svg11.dtd">
<svg version="1.1" id="Слой_1" xmlns="http://www.w3.org/2000/svg" xmlns:xlink="http://www.w3.org/1999/xlink" x="0px" y="0px"
	 width="24.006px" height="24.006px" viewBox="0 0 24.006 24.006" enable-background="new 0 0 24.006 24.006" xml:space="preserve">
<g>
	<path fill="#ED1C24" d="M8.429,15.577l7.147-7.147"/>
	<path fill="#ED1C24" d="M8.429,15.984c-0.104,0-0.208-0.04-0.288-0.12c-0.159-0.159-0.159-0.417,0-0.575l7.147-7.148
		c0.158-0.159,0.416-0.159,0.575,0c0.159,0.159,0.159,0.417,0,0.576l-7.147,7.147C8.638,15.944,8.533,15.984,8.429,15.984z"/>
	<path fill="#ED1C24" d="M8.429,8.43l7.147,7.147"/>
	<path fill="#ED1C24" d="M15.576,15.984c-0.104,0-0.209-0.04-0.287-0.12L8.141,8.717c-0.159-0.159-0.159-0.417,0-0.576
		c0.159-0.159,0.417-0.159,0.576,0l7.146,7.148c0.16,0.158,0.16,0.416,0,0.575C15.785,15.944,15.681,15.984,15.576,15.984z"/>
	<path fill="#ED1C24" d="M12.003,24.006C5.384,24.006,0,18.621,0,12.003C0,5.385,5.384,0,12.003,0
		c6.618,0,12.002,5.384,12.002,12.003C24.006,18.621,18.621,24.006,12.003,24.006z M12.003,0.814
		c-6.169,0-11.189,5.02-11.189,11.189c0,6.168,5.02,11.188,11.189,11.188c6.168,0,11.188-5.02,11.188-11.188
		C23.191,5.834,18.172,0.814,12.003,0.814z"/>
</g>
</svg>
