<?xml version="1.0" encoding="utf-8"?>
<!-- Generator: Adobe Illustrator 16.0.0, SVG Export Plug-In . SVG Version: 6.00 Build 0)  -->
<!DOCTYPE svg PUBLIC "-//W3C//DTD SVG 1.1//EN" "http://www.w3.org/Graphics/SVG/1.1/DTD/svg11.dtd">
<svg version="1.1" id="Слой_1" xmlns="http://www.w3.org/2000/svg" xmlns:xlink="http://www.w3.org/1999/xlink" x="0px" y="0px"
	 width="26.004px" height="26.005px" viewBox="0 0 26.004 26.005" enable-background="new 0 0 26.004 26.005" xml:space="preserve">
<g>
	<path fill="#FFFFFF" d="M24.26,6.638c-1.162-2.042-2.74-3.659-4.731-4.851C17.535,0.596,15.361,0,13.002,0S8.468,0.596,6.476,1.788
		C4.483,2.979,2.906,4.596,1.744,6.638C0.581,8.68,0,10.91,0,13.328c0,2.904,0.826,5.516,2.479,7.836
		c1.654,2.318,3.79,3.924,6.408,4.814c0.305,0.059,0.53,0.018,0.677-0.121c0.147-0.139,0.221-0.313,0.221-0.52
		c0-0.035-0.003-0.348-0.009-0.938s-0.009-1.105-0.009-1.545l-0.389,0.07c-0.249,0.046-0.562,0.066-0.939,0.061
		c-0.379-0.006-0.771-0.047-1.177-0.122c-0.407-0.075-0.785-0.249-1.135-0.521s-0.598-0.627-0.744-1.066l-0.17-0.4
		c-0.112-0.266-0.29-0.561-0.533-0.885c-0.242-0.324-0.488-0.543-0.736-0.659l-0.118-0.087c-0.079-0.058-0.152-0.127-0.221-0.208
		c-0.067-0.081-0.118-0.162-0.152-0.243c-0.033-0.081-0.006-0.147,0.085-0.199c0.091-0.053,0.254-0.078,0.491-0.078l0.338,0.052
		c0.227,0.046,0.506,0.185,0.839,0.417c0.332,0.23,0.606,0.531,0.82,0.901c0.26,0.475,0.573,0.837,0.939,1.085
		c0.367,0.248,0.737,0.373,1.109,0.373s0.694-0.029,0.965-0.087s0.524-0.145,0.762-0.261c0.102-0.775,0.378-1.371,0.829-1.787
		c-0.643-0.069-1.221-0.174-1.735-0.313c-0.513-0.139-1.044-0.364-1.591-0.677c-0.548-0.313-1.002-0.7-1.363-1.163
		c-0.36-0.463-0.657-1.07-0.889-1.822c-0.23-0.752-0.347-1.619-0.347-2.603c0-1.4,0.446-2.591,1.338-3.575
		c-0.418-1.052-0.379-2.232,0.118-3.54c0.327-0.104,0.813-0.026,1.456,0.234s1.114,0.483,1.413,0.668
		c0.3,0.185,0.539,0.341,0.72,0.468c1.05-0.3,2.134-0.451,3.251-0.451s2.201,0.151,3.251,0.451l0.644-0.416
		c0.439-0.278,0.959-0.532,1.557-0.764c0.599-0.231,1.056-0.295,1.372-0.191c0.508,1.307,0.553,2.487,0.135,3.54
		c0.892,0.983,1.338,2.175,1.338,3.575c0,0.983-0.116,1.854-0.348,2.612s-0.53,1.365-0.896,1.822
		c-0.367,0.457-0.824,0.842-1.372,1.153c-0.547,0.313-1.077,0.538-1.591,0.677s-1.092,0.244-1.735,0.313
		c0.587,0.521,0.88,1.342,0.88,2.465v3.661c0,0.208,0.071,0.382,0.212,0.521c0.142,0.139,0.364,0.18,0.669,0.121
		c2.618-0.891,4.754-2.496,6.407-4.816c1.654-2.318,2.48-4.93,2.48-7.835C26.004,10.91,25.422,8.68,24.26,6.638z"/>
</g>
</svg>
