<?xml version="1.0" encoding="utf-8"?>
<!-- Generator: Adobe Illustrator 16.0.0, SVG Export Plug-In . SVG Version: 6.00 Build 0)  -->
<!DOCTYPE svg PUBLIC "-//W3C//DTD SVG 1.1//EN" "http://www.w3.org/Graphics/SVG/1.1/DTD/svg11.dtd">
<svg version="1.1" id="Слой_1" xmlns="http://www.w3.org/2000/svg" xmlns:xlink="http://www.w3.org/1999/xlink" x="0px" y="0px"
	 width="37.963px" height="34.031px" viewBox="0 0 37.963 34.031" enable-background="new 0 0 37.963 34.031" xml:space="preserve">
<g>
	<path fill-rule="evenodd" clip-rule="evenodd" fill="#FFFFFF" d="M32.923,7.633v5.031h-2.617V7.711h-5.072l0.039-2.634l4.994,0.078
		l0.039-5.116L32.883,0v5.116h5.001l0.079,2.517H32.923z M16.368,1.817c2.229,0.849,3.415,3.424,3.415,6.067
		c0,2.217-1.24,4.126-2.99,5.483c-1.709,1.323-2.033,1.878-2.033,3.003c0,0.962,1.829,2.596,2.787,3.269
		c2.799,1.961,3.704,3.783,3.704,6.825c0,3.794-3.704,7.565-10.408,7.565C4.962,34.031,0,31.66,0,27.865
		c0-3.852,4.451-7.64,10.332-7.64c0.641,0,1.302,0.056,1.911,0.056c-0.806-0.776-1.344-1.584-1.344-2.758
		c0-0.696,0.126-1.51,0.441-2.104c-0.319,0.022-0.647,0.029-0.984,0.029c-4.829,0-8.065-3.407-8.065-7.63
		c0-4.133,4.467-7.699,9.215-7.699c2.647,0,10.591,0,10.591,0l-2.37,1.7H16.368z M11.526,21.277
		c-4.063-0.045-7.706,2.455-7.706,5.461c0,3.064,2.937,5.617,7.001,5.617c5.714,0,7.707-2.395,7.707-5.461
		c0-0.369-0.046-0.73-0.13-1.083c-0.447-1.735-2.03-2.595-4.236-4.116C13.359,21.437,12.476,21.287,11.526,21.277z M15.976,8.09
		c-0.47-3.554-3.064-6.405-5.791-6.485C7.455,1.523,5.626,4.244,6.097,7.798c0.472,3.552,3.064,6.498,5.793,6.579
		C14.617,14.458,16.446,11.644,15.976,8.09z"/>
</g>
</svg>
