<?xml version="1.0" encoding="utf-8"?>
<!-- Generator: Adobe Illustrator 16.0.0, SVG Export Plug-In . SVG Version: 6.00 Build 0)  -->
<!DOCTYPE svg PUBLIC "-//W3C//DTD SVG 1.1//EN" "http://www.w3.org/Graphics/SVG/1.1/DTD/svg11.dtd">
<svg version="1.1" id="Слой_1" xmlns="http://www.w3.org/2000/svg" xmlns:xlink="http://www.w3.org/1999/xlink" x="0px" y="0px"
	 width="29px" height="29px" viewBox="0 0 29 29" enable-background="new 0 0 29 29" xml:space="preserve">
<g>
	<path fill="#003366" d="M15.245,19.65h-0.752c-0.53,0-0.961,0.414-0.961,0.924v1.001c0,0.511,0.431,0.925,0.961,0.925h0.752
		c0.53,0,0.96-0.414,0.96-0.925v-1.001C16.205,20.063,15.775,19.65,15.245,19.65z"/>
	<path fill="#003366" d="M9.938,11.905l1.388,0.167c0.44,0.052,0.858-0.191,1.017-0.591c0.2-0.504,0.479-0.901,0.836-1.191
		c0.506-0.41,1.135-0.617,1.887-0.617c0.781,0,1.401,0.197,1.863,0.59c0.461,0.395,0.689,0.866,0.689,1.42
		c0,0.397-0.129,0.761-0.389,1.091c-0.168,0.209-0.687,0.65-1.549,1.324c-0.866,0.673-1.439,1.281-1.729,1.821
		c-0.295,0.552-0.397,1.164-0.423,1.776c-0.022,0.525,0.413,0.964,0.961,0.964h0.784c0.5,0,0.914-0.368,0.959-0.847
		c0.031-0.344,0.092-0.604,0.181-0.781c0.151-0.305,0.54-0.704,1.164-1.204c1.209-0.963,1.997-1.725,2.366-2.286
		c0.369-0.56,0.555-1.153,0.555-1.78c0-1.133-0.501-2.127-1.506-2.981c-1.002-0.853-2.354-1.28-4.051-1.28
		c-1.614,0-2.916,0.421-3.909,1.264c-0.845,0.718-1.359,1.569-1.54,2.551C9.438,11.602,9.642,11.87,9.938,11.905z"/>
</g>
<g>
	<path fill="none" stroke="#003366" stroke-width="3" stroke-miterlimit="10" d="M14.5,1.5c7.18,0,13,5.82,13,13
		c0,7.18-5.82,13-13,13c-7.18,0-13-5.82-13-13C1.5,7.32,7.32,1.5,14.5,1.5z"/>
</g>
</svg>
