<?xml version="1.0" encoding="utf-8"?>
<!-- Generator: Adobe Illustrator 16.0.0, SVG Export Plug-In . SVG Version: 6.00 Build 0)  -->
<!DOCTYPE svg PUBLIC "-//W3C//DTD SVG 1.1//EN" "http://www.w3.org/Graphics/SVG/1.1/DTD/svg11.dtd">
<svg version="1.1" id="Слой_1" xmlns="http://www.w3.org/2000/svg" xmlns:xlink="http://www.w3.org/1999/xlink" x="0px" y="0px"
	 width="15px" height="15px" viewBox="-0.5 -0.5 15 15" enable-background="new -0.5 -0.5 15 15" xml:space="preserve">
<g>
	<path fill="#FFFFFF" stroke="#FCFCFC" stroke-miterlimit="10" d="M7,0C3.134,0,0,3.134,0,7s3.134,7,7,7s7-3.134,7-7S10.866,0,7,0z
		 M7,13.416c-1.314,0-2.537-0.396-3.556-1.078l0,0l0.587-2.875c0.093-0.691,0.668-1.214,1.355-1.26C5.846,8.559,6.401,8.777,7,8.777
		c0.602,0,1.158-0.221,1.619-0.579c0.708,0.024,1.307,0.559,1.404,1.284l0.578,2.824C9.573,13.008,8.334,13.416,7,13.416z
		 M4.667,5.542c0-1.258,1.074-2.333,2.333-2.333s2.333,1.075,2.333,2.333c0,1.32-1.14,2.625-2.333,2.625
		C5.806,8.167,4.667,6.861,4.667,5.542z M11.117,11.917l-0.52-2.532C10.488,8.566,9.895,7.91,9.131,7.689
		c0.455-0.562,0.785-1.413,0.785-2.147c0-1.583-1.334-2.917-2.917-2.917S4.083,3.959,4.083,5.542c0,0.741,0.335,1.598,0.797,2.162
		C4.136,7.936,3.563,8.576,3.456,9.365l-0.528,2.59C1.497,10.777,0.583,8.993,0.583,7c0-3.538,2.879-6.417,6.417-6.417
		S13.417,3.462,13.417,7C13.417,8.973,12.521,10.738,11.117,11.917z"/>
</g>
</svg>
