<?xml version="1.0" encoding="utf-8"?>
<!-- Generator: Adobe Illustrator 16.0.0, SVG Export Plug-In . SVG Version: 6.00 Build 0)  -->
<!DOCTYPE svg PUBLIC "-//W3C//DTD SVG 1.1//EN" "http://www.w3.org/Graphics/SVG/1.1/DTD/svg11.dtd">
<svg version="1.1" id="Слой_1" xmlns="http://www.w3.org/2000/svg" xmlns:xlink="http://www.w3.org/1999/xlink" x="0px" y="0px"
	 width="2054.815px" height="673.855px" viewBox="0 119.949 2054.815 673.855" enable-background="new 0 119.949 2054.815 673.855"
	 xml:space="preserve">
<linearGradient id="SVGID_1_" gradientUnits="userSpaceOnUse" x1="1252.9219" y1="146.9136" x2="1252.9219" y2="504.664" gradientTransform="matrix(1 0 0 -1 -227.6602 569.8945)">
	<stop  offset="0" style="stop-color:#FFFFFF"/>
	<stop  offset="0.18" style="stop-color:#EAF8FE"/>
	<stop  offset="0.5526" style="stop-color:#B3E7FA"/>
	<stop  offset="1" style="stop-color:#6ACFF6"/>
</linearGradient>
<path fill="url(#SVGID_1_)" d="M0.523,119.949h2049.476v506.453H0.523V119.949z"/>
<g>
	
		<linearGradient id="SVGID_2_" gradientUnits="userSpaceOnUse" x1="1863.4404" y1="372.1392" x2="1863.4404" y2="127.1655" gradientTransform="matrix(1 0 0 -1 -227.6602 569.8945)">
		<stop  offset="0" style="stop-color:#FFFFFF"/>
		<stop  offset="0.0591" style="stop-color:#FFFFFF"/>
		<stop  offset="1" style="stop-color:#8BD7F8"/>
	</linearGradient>
	<path fill="url(#SVGID_2_)" d="M1591.177,197.756c-43.031,0-78.247,33.465-81.052,75.787c-4.838-1.33-9.926-2.047-15.18-2.047
		c-14.61,0-27.933,5.455-38.076,14.429c-2.658-0.438-5.394-0.676-8.179-0.676c-27.605,0-49.993,22.378-49.993,49.993
		c0,27.609,22.388,49.993,49.993,49.993c5.195,0,10.209-0.794,14.916-2.264c10.306,12.812,26.104,21.013,43.832,21.013
		c5.2,0,10.237-0.721,15.021-2.046c-0.012,0.269-0.024,0.528-0.024,0.796c0,13.803,11.197,24.993,24.996,24.993
		c10.87,0,20.104-6.924,23.552-16.608c17.17,19.383,42.256,31.61,70.189,31.61c37.537,0,69.912-22.065,84.885-53.933
		c1.273,0.367,2.566,0.705,3.863,0.998c0,0.147-0.006,0.293-0.006,0.436c0,13.122,10.635,23.748,23.748,23.748
		c13.112,0,23.744-10.626,23.744-23.748c0-2.288-0.324-4.503-0.931-6.592c14.562-7.737,25.963-20.643,31.74-36.277
		c7.615,7.198,17.883,11.629,29.184,11.629c7.558,0,14.188-4.982,19.438-9.697c8.221-7.381,16-23.772,16-33.332
		c0-8.961,1.334-26-14.65-36.509c-5.895-3.876-13.229-5.455-20.786-5.455c-1.308,0-2.604,0.072-3.882,0.185
		c-1.832-28.016-25.137-50.174-53.606-50.174c-19.742,0-36.986,10.646-46.328,26.505c-1.154-17.942-16.063-32.129-34.291-32.129
		c-16.762,0-30.711,11.997-33.746,27.868C1652.947,217.695,1624.394,197.756,1591.177,197.756z"/>
	<path fill="#FFFFFF" d="M1602.69,497.388c-2.152,6.845-2.424,14.229-0.37,21.467c4.199,14.804,16.976,25.035,32.113,27.576
		c0.384,1.916,0.815,3.819,1.356,5.726c12.182,42.943,59.734,67.063,106.228,53.876c14.355-4.071,26.937-11.235,37.103-20.454
		c23.359,7.598,49.703,8.514,75.807,1.109c27.751-7.871,50.808-23.885,66.886-44.323c7.936,6.336,19.181,8.82,30.267,5.676
		c9.297-2.639,16.609-8.695,20.75-16.229c19.518,7.845,40.212,10.108,58.478-6.101c15.83-14.047,2.458-42.081,2.458-42.081
		c48.324-29.298-1.683-63.13-1.683-63.13c11.317-53.834-39.888-77.044-39.007-73.547c-8.069-32.084-59.642-52.395-101.504-47.889
		c-12.156-33.795-50.9-52.275-88.812-41.521c-29.747,8.436-50.469,32.45-54.465,59.371c-8.349-1.385-17.243-0.998-26.073,1.508
		c-18.762,5.32-32.762,18.835-38.643,34.987c-3.637-0.154-7.385,0.264-11.125,1.324c-10.087,2.862-17.847,9.761-21.731,18.19
		c-10.447-1.68-21.566-1.161-32.601,1.968c-37.727,10.702-60.287,47.616-50.407,82.455
		C1572.896,475.622,1585.98,489.676,1602.69,497.388"/>
	<path fill="#FFFFFF" d="M1123.715,539.602c-4.501,8.431-7.1,18.312-7.1,28.883c0,21.626,10.854,40.354,26.699,49.597
		c-0.176,2.738-0.295,5.477-0.295,8.262c0,62.732,44.746,113.578,99.957,113.578c17.045,0,33.106-4.861,47.152-13.428
		c23.305,19.229,51.975,30.572,82.971,30.572c32.953,0,63.287-12.814,87.328-34.277c6.746,11.607,18.33,19.279,31.494,19.279
		c11.043,0,41.857-19.127,31.021-21.146c16.489,3.07,42.668,2,52.668-12.666c16.75-24.563,4.795-46.813,8-49.334
		c66-51.912,12-109.998,12-109.998c23.332-48-16.668-63.334-16.668-63.334c2.648-64.657-28.492-93.381-75.906-103.342
		c-2.828-50.352-39.648-90.193-84.668-90.193c-35.322,0-65.587,24.521-78.368,59.383c-8.742-5.072-18.641-7.959-29.125-7.959
		c-22.28,0-41.88,12.9-53.379,32.484c-3.948-1.605-8.197-2.475-12.641-2.475c-11.979,0-22.658,6.352-29.556,16.262
		c-10.958-6.275-23.339-9.842-36.442-9.842c-44.797,0-81.103,41.256-81.103,92.149
		C1097.755,498.75,1107.754,522.771,1123.715,539.602"/>
	
		<linearGradient id="SVGID_3_" gradientUnits="userSpaceOnUse" x1="2081.96" y1="390.0327" x2="2180.2542" y2="219.7822" gradientTransform="matrix(0.9959 0.0905 0.0905 -0.9959 -267.1208 360.5444)">
		<stop  offset="0" style="stop-color:#FFFFFF"/>
		<stop  offset="0.1774" style="stop-color:#FFFFFF"/>
		<stop  offset="0.3096" style="stop-color:#F4FBFE"/>
		<stop  offset="0.5113" style="stop-color:#DEF2FD"/>
		<stop  offset="0.7561" style="stop-color:#B9E6FB"/>
		<stop  offset="1" style="stop-color:#8BD7F8"/>
	</linearGradient>
	<path fill="url(#SVGID_3_)" d="M1916.395,145.118c-1.097-0.094-2.207-0.132-3.334-0.112c-15.261,0.275-27.789,11.214-30.427,25.474
		c-7.348-2.971-15.418-4.54-23.862-4.389c-28.281,0.508-51.67,20.183-57.65,46.248c-4.354-1.38-8.99-2.1-13.815-2.013
		c-7.722,0.138-14.904,2.302-21.091,5.951c-6.287-4.525-14.075-7.147-22.469-6.998c-19.063,0.341-34.514,14.829-36.24,33.138
		l-0.021,0.234c-0.111,1.264-0.154,2.545-0.133,3.84c0.36,20.185,17.244,36.25,37.703,35.883c3.95-0.07,7.739-0.756,11.291-1.947
		c1.211,1.326,2.491,2.578,3.862,3.746c6.933,13.779,21.463,23.135,38.092,22.836c9.853-0.176,18.841-3.719,25.873-9.489
		c3.461,4.315,8.843,7.041,14.851,6.935c6.924-0.125,12.896-3.99,15.973-9.604c12.641,19.089,34.633,31.549,59.457,31.104
		c20.369-0.365,38.549-9.355,51.01-23.367c3.123,5.164,8.89,8.578,15.428,8.459c9.72-0.174,17.455-8.082,17.283-17.67
		c-0.078-4.362-1.77-8.295-4.512-11.293c12.779-7.736,21.74-20.953,23.568-36.28c12.805-6.727,21.418-20.123,21.146-35.404
		c-0.391-21.703-18.529-38.971-40.529-38.576c-12.309,0.221-23.213,5.933-30.368,14.722c-0.875-9.445-9-16.759-18.767-16.583
		c-1.41,0.025-2.793,0.22-4.115,0.538c-2.479-13.563-13.86-24-27.87-25.349L1916.395,145.118z"/>
</g>
<g>
	
		<linearGradient id="SVGID_4_" gradientUnits="userSpaceOnUse" x1="627.4932" y1="677.5034" x2="735.9363" y2="420.909" gradientTransform="matrix(-0.7977 0.6031 0.6031 0.7977 371.3809 -523.7296)">
		<stop  offset="0" style="stop-color:#FFFFFF"/>
		<stop  offset="0.0591" style="stop-color:#FFFFFF"/>
		<stop  offset="1" style="stop-color:#8BD7F8"/>
	</linearGradient>
	<path fill="url(#SVGID_4_)" d="M202.585,408.064c9.905-0.923,19.817-3.834,29.154-8.885c31.276-16.919,46.078-52.455,37.774-85.071
		c5.654-0.974,11.243-2.849,16.581-5.736c8.537-4.617,15.313-11.193,20.119-18.851c9.617,1.429,19.82-0.142,29.103-5.163
		c22.625-12.238,31.241-40.294,19.238-62.674c-1.107-2.066-2.356-4.016-3.723-5.836l-0.188-0.248
		c-13.466-17.687-38.35-23.323-58.791-12.267c-4.367,2.364-8.202,5.322-11.481,8.707c-2.113-0.784-4.262-1.444-6.464-1.958
		c-15.654-11.406-37.249-13.473-55.636-3.524c-10.897,5.89-18.892,15.052-23.427,25.573c-6.34-2.826-13.916-2.765-20.559,0.83
		c-7.656,4.141-12.102,11.919-12.311,19.979c-25.075-14.05-56.783-15.277-84.234-0.428c-22.525,12.186-37.649,32.754-43.507,55.636
		c-6.457-3.974-14.852-4.458-22.083-0.548c-10.746,5.813-14.837,19.135-9.137,29.762c2.594,4.836,6.74,8.258,11.522,10.027
		c-9.818,16.043-12.223,36.01-5.459,54.216c-10.431,14.931-12.345,34.897-3.259,51.839c1.18,2.195,2.503,4.268,3.953,6.205
		l0.313,0.414c14.489,18.953,41.188,24.979,63.133,13.109c13.612-7.363,22.5-20.059,25.437-34.029
		c6.406,10.061,19.676,13.547,30.477,7.705c1.561-0.846,2.991-1.859,4.282-2.98c11.469,14.922,32.536,19.652,49.849,10.287
		c1.825-0.986,3.543-2.096,5.148-3.311C201.65,440.834,207.265,423.653,202.585,408.064"/>
	
		<linearGradient id="SVGID_5_" gradientUnits="userSpaceOnUse" x1="443.7192" y1="340.3511" x2="443.7192" y2="30.9556" gradientTransform="matrix(0.9604 -0.2785 -0.2785 -0.9604 -82.1558 733.2803)">
		<stop  offset="0" style="stop-color:#FFFFFF"/>
		<stop  offset="0.0591" style="stop-color:#FFFFFF"/>
		<stop  offset="1" style="stop-color:#8BD7F8"/>
	</linearGradient>
	<path fill="url(#SVGID_5_)" d="M317.669,262.979c-25.063,7.268-40.855,30.918-38.843,55.633
		c-13.451-1.621-27.474-0.607-41.343,3.414c-46.455,13.467-76.27,56.391-74.498,102.078c-7.803-0.334-15.776,0.551-23.704,2.848
		c-12.68,3.678-23.571,10.459-32.15,19.242c-12.397-4.662-26.428-5.512-40.213-1.516c-33.604,9.742-53.06,44.514-43.446,77.674
		c9.612,33.152,44.651,52.131,78.255,42.389c6.487-1.881,12.435-4.707,17.764-8.262c2.592,1.65,5.264,3.146,8.051,4.459
		c17.594,19.646,45.756,28.598,73.069,20.678c16.182-4.691,29.434-14.551,38.465-27.217c7.637,5.574,17.739,7.67,27.607,4.811
		c11.37-3.297,19.501-12.342,22.074-22.986c29.385,25.863,71.251,36.605,112.022,24.785c33.457-9.699,59.445-32.66,73.756-61.352
		c7.464,7.131,18.504,10.188,29.242,7.072c15.961-4.625,25.196-21.137,20.631-36.883c-2.076-7.164-6.623-12.9-12.485-16.625
		c17.636-18.477,26.521-44.288,22.694-70.406c18.131-16.822,26.364-42.777,19.087-67.878
		c-10.335-35.647-47.987-56.044-84.118-45.569c-20.217,5.861-35.662,20.16-43.548,37.863c-5.667-15.195-22.341-23.643-38.383-18.99
		c-2.317,0.67-4.512,1.609-6.55,2.726C370.084,267.86,343.384,255.524,317.669,262.979z"/>
	<path fill="#FFFFFF" d="M289.001,481.415c2.687-32.078,58.844-62.604,58.844-62.604c2.083-9.613-18.805-25.158,8.586-48.54
		c3.253-2.776,14.866-2.709,18.828-2.271c8.018-16.53,24.659-29.67,45.705-33.838c9.908-1.963,19.675-1.696,28.667,0.394
		c7.013-27.996,32.035-51.669,65.4-58.276c42.533-8.424,83.111,13.949,93.106,50.399c46.236-1.562,87.927,21.438,106.357,58.056
		c7.818-4.156,16.451-7.295,25.727-9.132c37.08-7.345,72.699,8.203,88.732,36.048c4.402-1.722,9.047-3.091,13.884-4.048
		c39.36-7.797,76.845,14.075,83.729,48.837c6.886,34.77-19.435,69.268-58.795,77.063c-16.195,3.209-32.082,1.381-45.642-4.295
		c-13.896,27.602-41.996,49.457-77.334,56.455c-25.246,5-49.955,1.582-70.537-8.146c-5.27,7.604-13.86,13.416-24.291,15.48
		c-12.432,2.463-24.487-0.998-32.551-8.27c-19.591,20.264-46.379,35.348-77.511,41.516c-29.288,5.803-58.021,2.836-82.831-6.926
		c-12.027,8.922-26.188,19.41-42.592,18.682c-53.263-2.361-61.984-67.912-61.984-67.912
		C297.615,553.643,286.515,511.09,289.001,481.415z"/>
</g>
<linearGradient id="SVGID_6_" gradientUnits="userSpaceOnUse" x1="1708.7451" y1="-381.9727" x2="1708.7451" y2="-65.1699" gradientTransform="matrix(1 0 0 -1 -682.9805 402.8291)">
	<stop  offset="0" style="stop-color:#BAE51E"/>
	<stop  offset="0.1592" style="stop-color:#AADC1C"/>
	<stop  offset="0.4681" style="stop-color:#82C416"/>
	<stop  offset="0.8925" style="stop-color:#419D0D"/>
	<stop  offset="1" style="stop-color:#2F930B"/>
</linearGradient>
<path fill="url(#SVGID_6_)" d="M262.453,515.23c-100.764,9.266-187.948,20.979-261.93,33.197v236.375h2050.483V489.919
	c-200.448-16.004-427.801-21.918-639.189-21.92C814.188,467.994,262.453,515.23,262.453,515.23"/>
<linearGradient id="SVGID_7_" gradientUnits="userSpaceOnUse" x1="2130.127" y1="-88.1729" x2="2130.127" y2="-389.2314" gradientTransform="matrix(1 0 0 -1 -682.9805 402.8291)">
	<stop  offset="0" style="stop-color:#BAE51E"/>
	<stop  offset="0.0172" style="stop-color:#B1E01D"/>
	<stop  offset="0.1004" style="stop-color:#89C817"/>
	<stop  offset="0.1865" style="stop-color:#69B513"/>
	<stop  offset="0.2746" style="stop-color:#4FA60F"/>
	<stop  offset="0.3658" style="stop-color:#3D9B0D"/>
	<stop  offset="0.462" style="stop-color:#32950B"/>
	<stop  offset="0.5714" style="stop-color:#2F930B"/>
	<stop  offset="0.6337" style="stop-color:#2F930B"/>
	<stop  offset="1" style="stop-color:#2F930B"/>
</linearGradient>
<path fill="url(#SVGID_7_)" d="M844.294,640.585v131.053c15.035,6.98,32.229,13.793,51.28,20.422H2050V491.001
	C1843.215,492.015,1105.766,505.281,844.294,640.585"/>
<path fill="#E7DA5B" d="M1647.82,505.394c-38.693,9.732-136.523,40.605-208.193,117.17l65.063,6.471
	c0,0,49.488-78.771,152.367-124.143C1653.979,505.062,1650.896,505.218,1647.82,505.394"/>
<linearGradient id="SVGID_8_" gradientUnits="userSpaceOnUse" x1="1710.3877" y1="-154.8955" x2="1710.3877" y2="-390.9756" gradientTransform="matrix(1 0 0 -1 -682.9805 402.8291)">
	<stop  offset="0" style="stop-color:#BAE51E"/>
	<stop  offset="0.0741" style="stop-color:#A9DB1C"/>
	<stop  offset="0.2837" style="stop-color:#7DC116"/>
	<stop  offset="0.4866" style="stop-color:#5BAD11"/>
	<stop  offset="0.6784" style="stop-color:#439F0E"/>
	<stop  offset="0.8544" style="stop-color:#34960C"/>
	<stop  offset="1" style="stop-color:#2F930B"/>
</linearGradient>
<path fill="url(#SVGID_8_)" d="M0,563.652v230.152h2054.814V681.164C1760.391,631.738,858.974,557.714,265.659,557.724
	c-93.674,0.002-180.085,1.852-255.491,5.932"/>
<g>
	<path fill="#8F9AA2" d="M1530.322,265.765l-1.179,0.771c-0.384,0.268-0.818,0.48-1.147,0.82l-2.067,1.928
		c-0.338,0.336-0.714,0.633-1.002,1.01l-0.864,1.136l-0.865,1.147c-0.303,0.371-0.545,0.783-0.755,1.221l-0.666,1.277
		c-0.213,0.434-0.478,0.846-0.607,1.316c-0.278,0.93-0.694,1.814-0.832,2.792c-0.08,0.478-0.21,0.94-0.25,1.433l-1.016-0.535
		c-0.402-0.203-0.792-0.426-1.201-0.607l-1.27-0.419l-1.27-0.416c-0.427-0.124-0.836-0.312-1.28-0.372l-2.607-0.48
		c-0.868-0.166-1.754-0.175-2.63-0.246c-0.875-0.076-1.754-0.066-2.626-0.029c-0.875,0.012-1.747,0.091-2.615,0.191
		c-0.864,0.068-1.729,0.238-2.571,0.426c0.871,0,1.729,0.004,2.59,0.055c0.86,0.037,1.715,0.092,2.564,0.211
		c0.85,0.094,1.7,0.154,2.532,0.337c0.835,0.173,1.685,0.229,2.499,0.463l2.444,0.638c0.42,0.074,0.792,0.273,1.187,0.412
		l1.172,0.447l1.172,0.438c0.376,0.178,0.731,0.396,1.096,0.59l1.021,0.551c-0.188,0.188-0.358,0.38-0.492,0.566
		c-0.474,0.604-0.622,1.162-0.622,1.162s0.561-0.08,1.251-0.293c0.341-0.113,0.742-0.231,1.129-0.412
		c0.261-0.092,0.514-0.215,0.771-0.338c0.015-0.006,0.028-0.014,0.047-0.021c0.127-0.063,0.257-0.129,0.387-0.188
		c0.395-0.188,0.782-0.431,1.147-0.629c0.364-0.189,0.697-0.445,0.994-0.634c0.594-0.354,1.017-0.771,1.017-0.771
		s-0.503-0.217-1.299-0.269c-0.397-0.036-0.835,0.044-1.31,0.132c-0.115,0.018-0.221,0.063-0.332,0.096
		c0.039-0.371,0.126-0.748,0.185-1.125c0.094-0.864,0.477-1.678,0.705-2.522c0.101-0.433,0.321-0.817,0.499-1.224l0.557-1.209
		c0.17-0.411,0.376-0.805,0.646-1.168l0.727-1.125l0.724-1.139c0.238-0.38,0.582-0.684,0.864-1.035l1.772-2.072
		c0.271-0.375,0.644-0.643,0.977-0.957l1.021-0.924c0.688-0.606,1.366-1.235,2.044-1.887
		C1531.89,264.754,1531.101,265.25,1530.322,265.765"/>
	<path fill="#8F9AA2" d="M1546.163,151.483l-1.18,0.771c-0.383,0.268-0.817,0.48-1.146,0.82l-2.068,1.928
		c-0.336,0.336-0.712,0.633-1.001,1.01l-0.865,1.136l-0.863,1.147c-0.305,0.371-0.546,0.783-0.757,1.222l-0.666,1.276
		c-0.213,0.435-0.477,0.847-0.606,1.316c-0.278,0.93-0.694,1.816-0.831,2.792c-0.08,0.478-0.211,0.94-0.25,1.433l-1.017-0.535
		c-0.402-0.202-0.792-0.426-1.201-0.607l-1.271-0.419l-1.27-0.416c-0.427-0.124-0.836-0.312-1.279-0.373l-2.608-0.481
		c-0.867-0.166-1.754-0.174-2.63-0.246c-0.875-0.075-1.753-0.065-2.625-0.028c-0.875,0.011-1.747,0.09-2.614,0.192
		c-0.865,0.067-1.729,0.238-2.572,0.426c0.871,0,1.729,0.004,2.591,0.054c0.859,0.037,1.714,0.091,2.563,0.21
		c0.851,0.094,1.7,0.156,2.532,0.337c0.835,0.173,1.686,0.231,2.499,0.464l2.445,0.635c0.42,0.076,0.792,0.275,1.186,0.414
		l1.173,0.447l1.172,0.438c0.376,0.178,0.73,0.395,1.097,0.591l1.021,0.549c-0.188,0.188-0.357,0.38-0.492,0.567
		c-0.475,0.605-0.622,1.162-0.622,1.162s0.561-0.08,1.251-0.293c0.342-0.112,0.742-0.231,1.129-0.412
		c0.261-0.092,0.514-0.215,0.771-0.338c0.016-0.006,0.029-0.014,0.047-0.021c0.128-0.064,0.258-0.129,0.388-0.188
		c0.395-0.188,0.782-0.43,1.146-0.629c0.365-0.188,0.698-0.445,0.994-0.633c0.594-0.355,1.018-0.771,1.018-0.771
		s-0.503-0.217-1.3-0.268c-0.396-0.035-0.835,0.045-1.309,0.131c-0.116,0.019-0.222,0.065-0.332,0.098
		c0.039-0.372,0.126-0.749,0.184-1.125c0.095-0.865,0.479-1.678,0.705-2.523c0.102-0.432,0.322-0.818,0.499-1.224l0.558-1.208
		c0.17-0.412,0.376-0.807,0.645-1.168l0.728-1.125l0.725-1.139c0.237-0.381,0.582-0.685,0.863-1.035l1.767-2.071
		c0.271-0.376,0.645-0.644,0.978-0.958l1.02-0.923c0.688-0.608,1.368-1.238,2.044-1.89
		C1547.729,150.475,1546.939,150.968,1546.163,151.483"/>
</g>
<g>
	<g>
		<g>
			<path opacity="0.1" d="M1684.418,655.599c-2.423-0.393-4.707-1.127-7.28-1.487c-5.274-0.741-11.945-0.257-17.369-0.431
				c-8.045-0.27-16.063-1.212-24.036-1.487c-5.677-0.185-12.91,0.279-17.924-1.468c-1.028-3.673,6.428-4.642,9.634-5.991
				c-5.848-1.137-34.963,6.198-33.494-1.589c-10.344-0.375-20.542,0.718-30.2,2.796h-6.143c-3.803,1.804-17.703,6.011-17.111,9.612
				c4.891,1.374,10.882-0.709,15.824,0.376c2.092,4.568-11.762,6.568-15.87,7.615c-3.664,0.937-8.036,3.767-1.668,4.275
				c4.715,0.383,10.948-2.588,15.582-3.42c6.457-1.146,12.954-1.89,18.861,0.558c10.43,4.33,18.113-3.783,27.749-5.576
				c6.767-1.271,14.777,3.786,21.992,4.179c8.219,0.436,13.578-3.31,20.521-4.891c3.767-0.862,7.508-1.805,11.59-1.161
				c3.991,0.627,7.79,2.092,12.177,2.363c5.259,0.33,19.534,1.638,23.19-1.496c0.479-0.407,1.122-0.862,1.386-1.353
				C1689.897,655.828,1686.838,656.008,1684.418,655.599"/>
			<g>
				<g>
					<defs>
						<path id="SVGID_9_" d="M1610.608,551.22c-0.474-0.184-0.962-0.38-1.463-0.569
							C1609.636,550.886,1610.125,551.079,1610.608,551.22 M1566.595,523.525c0.136-0.211,0.304-0.439,0.488-0.679
							C1566.901,523.059,1566.738,523.286,1566.595,523.525 M1560.25,512.787c0.057-0.013,0.548-0.013,0.602,0
							c0.042-0.735,0.059-1.487,0.052-2.234C1560.369,511.24,1560.088,511.99,1560.25,512.787 M1577.048,440.77
							c-1.557,3.831-2.942,9.235-5.58,12.291c1.359,0.759,2.35-0.515,3.183-1.496c0.966,1.794-0.303,3.148-0.722,4.868
							c1.015-0.093,2.054-0.852,2.852-1.499c0.608,3.912-2.46,6.503-5.118,8.729c-1.706,1.436-3.188,2.487-5.178,3.552
							c-1.306,0.691-4.396,1.435-3.991,3.374c1.436,0.093,3.472-0.743,4.269-1.721c0.417-0.229,1.013-0.472,1.508-0.622
							c-0.841,1.767-2.028,3.456-3.035,5.037c2.671,0.207,8.151-2.893,9.636-4.899c1.227,2.939-3.832,7.49-5.903,9.201
							c-2.379,1.979-5.672,3.549-7.829,5.563c2.124,0.42,5.424-1.261,7.181-2.352c-0.291,0.911-0.711,1.665-0.658,2.6
							c1.358-0.76,2.803-1.594,4.024-2.366c0.865,5.054-9.028,11.855-13.417,12.266c1.229,0,2.554,0.139,3.724-0.196
							c-0.347,0.701-0.896,1.358-1.318,1.947c1.538,0.245,4.171-1.346,5.122-2.408c-1.866,4.135-9.477,7.408-13.213,9.241
							c-2.084,1.024-3.725,2.063-5.788,2.903c-1.464,0.598-5.736,1.588-6.313,2.836c2.706,0.146,4.391-1.723,6.908-1.723
							c0.716,3.248-3.257,4.99-3.296,7.789c2.339-0.579,4.324-2.24,6.431-3.255c-0.153,1.282-0.61,2.499-0.817,3.711
							c1.694-0.433,6.654-6.076,7.137-2.633c0.561-1.005,2.563-2.829,4.009-2.426c0.028,0.483,0.045,0.976,0.052,1.47
							c1.416-1.83,4.612-3.231,6.061-3.965c2.715-1.374,5.208-3.383,7.812-4.744c0.762,4.599-8.76,10.746-11.448,13.45
							c1.452,0.665,5.147-1.796,6.352-2.845c-1.28,2.791-3.98,4.865-6.097,6.931c-1.23,1.207-2.177,2.826-3.778,3.351
							c-0.597,0.924-1.821,1.486-2.544,1.945c-1.176-0.006-2.124,0.533-3.313,0.541c2.691,1,5.849-1.688,8.065-2.979
							c2.189-1.282,4.986-2.28,7.138-3.779c0.365,1.52-1.089,3.127-2.066,4.388c0.822-0.961,1.985-1.665,2.967-2.376
							c0.642,3.138-5.186,6.884-7.579,8.075c-3.301,1.642-6.688,3.091-10.071,4.319c-3.147,1.144-6.585,2.012-9.914,2.841
							c-2.02,0.502-6.575,1.8-7.614,3.783c1.283,0.318,2.573-0.261,3.907-0.839c1.26-0.548,2.554-1.095,3.905-0.885
							c0.158,2.355-1.462,3.073-1.602,5.023c-0.17,2.402,2.577,0.408,4.086-0.56c1.356-0.867,3.269-2.667,4.911-2.979
							c2.178-0.412,1.367,1.275,1.606,2.909c1.129-4.124,5.137-2.714,8.109-3.742c2.127-0.725,5.001-2.732,7.344-2.453
							c0.145,3.349-1.195,6.049-3.507,8.331c-1.654,1.631-4.96,2.571-6.312,4.396c1.207,0.084,2.178-0.517,3.171-1.115
							c1.102-0.668,2.23-1.336,3.739-1.065c0.147,2.582-3.729,5.843-5.854,6.883c-2.844,1.386-5.987,2.781-9.106,3.932
							c-2.792,1.031-5.479,2.261-8.077,3.558c-2.432,1.219-6.728,2.477-8.391,4.687c1.149,1.117,5.903-1.938,7.428-2.451
							c1.662-0.57,2.521-1.293,2.925,0.604c0.271,1.283-0.628,2.452-1.354,3.346c3.148-1.427,7.256-1.688,10.072-3.27
							c-0.746,1.699-2.832,3.198-3.545,4.848c2.099-1.49,4.903-2.006,7.184-3.12c-0.024,1.995-0.297,2.597,2.446,2.087
							c1.777-0.334,3.631-0.623,5.405-0.912c3.302-0.541,6.314-1.282,9.837-1.099c-0.651,3.736-7.233,7.272-10.298,8.767
							c-2.25,1.106-10.269,2.512-10.742,4.863c0.651,0.031,1.226-0.137,1.795-0.305c0.556-0.168,1.11-0.333,1.742-0.311
							c0.073,0.389,0.085,0.893-0.01,1.281c-1.664,1.31-2.23,2.606-4.448,3.627c-1.578,0.724-3.524,1.465-5.158,2.031
							c-3.584,1.246-5.922,3.355-9.539,5.014c-1.531,0.703-6.378,1.875-6.371,3.922c2.521,0.112,5.69-2.373,8.044-3.111
							c5.051-1.595,1.114,2.812,0.025,5.13c2.737-0.277,4.655-1.413,7.303-2.137c1.214,4.542-5.837,9.369-9.081,10.971
							c-2.18,1.087-9.489,3.917-9.887,6.198c2.64,0.403,5.204-1.109,7.757-2.625c2.541-1.511,5.074-3.021,7.665-2.634
							c0.576,3.412-2.618,4.606-4.599,6.872c1.846,0.077,4.175-1.907,5.776-2.738c1.552-0.803,3.188-1.722,4.87-2.41
							c0.082,2.283-1.934,3.927-2.159,6.01c2.33-0.404,4.778-3.903,7.206-5.125c2.855-1.44,6.592-4.234,10.004-3.783
							c0.711,3.79-6.873,7.684-9.446,9.344c-2.645,1.714-7.722,3.382-8.442,6.48c1.743-0.66,4.509-2.424,6.037-3.671
							c-0.086,2.099-1.741,4.395-2.837,5.963c2.122-2.113,7.226-5.777,9.975-6.226c0.342,2.906-3.323,5.51-3.759,8.218
							c1.096-1.14,2.653-2.619,3.838-3.479c0.498-0.364,1.357-1.27,1.962-1.187c1.247,0.158,0.454,0.962,1.188,1.354
							c2.579,1.351,1.997-0.936,3.95-2.257c2.429-1.634,1.96,0.71,2.105,2.691c2.412-1.693,2.395-9.11,6.874-8.195
							c0.358,1.406,0.207,3.006,0.893,4.156c-0.131-1.586,2.244-3.307,3.352-4.299c1.651-1.484,1.953-1.244,3.837-0.361
							c-0.033,0.301,0.107,0.288,0.265,0.409l1.57,2.473c2.925,4.515,5.393,8.788,10.954,10.764c0.906-1.937-0.855-3.777-1.26-5.609
							c-0.374-1.66-0.673-3.854-0.475-5.568c3.17-0.145,5.066,3.963,7.799,4.415c1.417-2.827-0.812-4.936-0.598-7.561
							c2.126,0.005,4.861,3.054,6.634,4.296c2.087,1.451,4.116,3.147,6.528,4.178c0.168-2.036-0.097-3.914-1.06-5.545
							c3.324-0.47,7.47,2.945,10.729,3.514c-1.971-5.972-10.634-7.567-12.522-13.625c1.557-0.096,3.082,0.272,4.586,0.641
							c1.553,0.383,3.075,0.763,4.572,0.63c-1.091-1.319-1.918-2.696-2.424-4.348c1.865-0.568,5.231,1.643,6.302,2.783
							c1.367,0.478,5.665,1.312,4.925-1.132c-0.578-1.922-5.468-3.953-7.056-5.062c-3.324-2.324-9.731-3.825-11.539-7.64
							c2.46-0.171,4.706,0.338,6.927,0.841c1.975,0.448,3.926,0.899,5.993,0.873c-0.063-1.487-1.887-3.15-0.469-4.28
							c1.005-0.8,3.688,0.083,4.36,0.687c4.095,0.233,8.19,0.388,12.273,0.851c1.058-3.583-5.65-4.779-7.188-6.385
							c-2.877-0.754-5.714-1.839-8.709-1.837c-3.247,0.011-6.59,0.228-9.885,0.228c-6.921,0-11.903-2.138-17.313-5.829
							c1.394-0.607,3.547-0.294,5.736,0.014c2.804,0.398,5.665,0.795,7.055-0.733c-0.103-0.417,0.117-1.046,0.055-1.491
							c3.403-0.988,6.748,1.325,9.854,1.983c1.161,0.239,3.76,1.288,4.951,0.679c1.816-0.927,0.637-2.646,0.474-4.013
							c2.298,0.128,4.604,1.637,6.902,1.262c-1.929-2.76-6.78-4.438-9.854-6.065c-3.505-1.849-7.17-3.27-10.765-5.313
							c-3.26-1.85-6.249-3.828-9.262-5.787c-2.133-1.376-6.207-3.53-6.207-6.314c3.176-0.164,7.368,0.243,9.652,2.167
							c0.495,0.211,0.658,0.133,1.071,0.429c-1.042-1.196-1.615-2.424-1.74-3.95c1.546-0.09,3.159,0.417,4.677,0.993
							c-3.34-1.59-6.797-5.052-9.496-7.069c-2.052-1.53-4.84-3.547-6.477-5.626c2.172-0.833,7.974,1.954,9.871,3.296
							c-0.348-2.097-2.69-3.644-2.618-5.956c2.125-0.404,4.823,1.018,6.663,1.74c0.076-1.052-0.331-1.84-0.394-2.864
							c2.238-0.424,4.741,1.364,6.708,2.22c2.088,0.917,4.485,1.475,6.502,2.384c-1.874-2.641-5.07-4.064-6.966-6.655
							c1.152-1.193,3.136-0.231,5.071,0.733c1.454,0.724,2.878,1.451,3.893,1.251c-0.121-3.326-6.122-4.732-8.666-5.854
							c-3.606-1.592-7.073-3.258-10.383-5.331c-3.09-1.933-6.306-3.938-9.351-5.619c-1.714-0.944-10.44-4.631-7.89-6.898
							c2.887-2.566,9.313,1.048,11.675,2.464c-0.638-1.896-1.864-3.771-2.476-5.618c2.104-0.2,4.693,1.815,6.498,2.917
							c-0.114-0.673-0.325-1.66-0.207-2.469c2.094-0.132,3.874,1.436,5.757,1.943c0.803-2.599,4.02,0.557,5.576,0.733
							c-0.64-1.107-1.299-1.776-1.473-3.068c1.25-0.287,2.657-0.089,4.07,0.111c0.941,0.135,1.889,0.267,2.785,0.253
							c-3.074-2.817-29.207-6.637-25.021-13.664c3.078-0.117,5.663,1.634,8.435,2.42c-1.28-1.911-2.463-3.809-3.452-5.843
							c0.799-0.308,1.83-0.276,2.579,0.218c0.103-1.177-0.328-2.128-0.155-3.313c1.261-0.175,3.022,0.407,4.183,0.827
							c0.7-1.354-0.184-2.542-0.216-3.963c-4.477-2.313-9.514-3.855-13.663-6.542c-3.453-2.239-5.052-7.195-5.344-11.194
							c1.788,0.156,3.237,2.138,5.098,1.952c-0.021-0.833,0.048-1.655,0.272-2.404c1.863-0.25,3.817,1.374,5.339,1.729
							c-2.546-1.64-5.239-3.181-6.964-5.537c-1.309-0.403-2.958-2.118-4.066-3.124c-1.884-1.716-1.225-2.582-0.8-4.737
							c1.094-0.085,1.546,0.247,2.505,0.783c0.865-2.128-2.937-5.635-4.116-7.721c-1.258-2.215-1.217-5.305-2.309-7.424
							c-0.219-0.438-0.489-0.823-0.829-1.159c-0.021-0.023-0.043-0.03-0.073-0.03C1578.775,438.95,1577.048,440.77,1577.048,440.77"
							/>
					</defs>
					<clipPath id="SVGID_10_">
						<use xlink:href="#SVGID_9_"  overflow="visible"/>
					</clipPath>
					
						<linearGradient id="SVGID_11_" gradientUnits="userSpaceOnUse" x1="966.6265" y1="474.6245" x2="967.8657" y2="474.6245" gradientTransform="matrix(91.3307 0 0 91.3307 -86756.125 -42814.668)">
						<stop  offset="0" style="stop-color:#00AD1C"/>
						<stop  offset="1" style="stop-color:#00851E"/>
					</linearGradient>
					<rect x="1526.576" y="438.95" clip-path="url(#SVGID_10_)" fill="url(#SVGID_11_)" width="114.119" height="188.335"/>
				</g>
			</g>
			<g>
				<g>
					<defs>
						<polygon id="SVGID_12_" points="1579.683,653.429 1584.717,653.429 1578.73,439.982 						"/>
					</defs>
					<clipPath id="SVGID_13_">
						<use xlink:href="#SVGID_12_"  overflow="visible"/>
					</clipPath>
					
						<linearGradient id="SVGID_14_" gradientUnits="userSpaceOnUse" x1="953.2676" y1="475.3022" x2="954.5064" y2="475.3022" gradientTransform="matrix(0 -122.2916 122.2916 0 -56543.8203 117248.25)">
						<stop  offset="0" style="stop-color:#7C6E26"/>
						<stop  offset="1" style="stop-color:#1E1800"/>
					</linearGradient>
					<rect x="1578.73" y="439.982" clip-path="url(#SVGID_13_)" fill="url(#SVGID_14_)" width="5.986" height="213.447"/>
				</g>
			</g>
			<g>
				<g>
					<defs>
						<path id="SVGID_15_" d="M1576.374,489.864l-0.372,0.287c-0.525,0.134-0.95,0.545-1.451,0.751
							c-0.676,0.291-1.361,0.495-2.068,0.716c-1.319,0.409-2.669,0.904-3.979,1.445c-0.844,0.354-1.535,0.826-2.403,1.119
							c-0.805,0.275-1.519,1.054-2.349,1.243c-0.283,0.233-1.547,0.658-1.491,1.145c0.53,0.082,1.079-0.147,1.63-0.38
							c0.593-0.248,1.186-0.498,1.755-0.353c0.127,0.588-0.7,0.709-0.958,1.064c0.233,0.227,0.515,0.118,0.763,0.018
							c0.214-0.092,0.728-0.443,0.58,0c-0.126,0.372-1.099,0.817-1.417,1.022c-0.412,0.266-0.838,0.565-1.285,0.873
							c-0.412,0.283-1.034,0.529-0.946,1.108c0.3,0.009,0.585-0.157,0.867-0.24c0.289-0.083,0.665-0.133,0.949-0.252
							c0.161,0.366-0.759,0.906-0.988,1.156c0.538,0.173,1.157-0.058,1.528-0.417c0.183,0.371-0.931,1.205-1.215,1.402
							c-0.59,0.421-1.13,0.802-1.78,1.163c-0.254,0.139-1.682,1.048-0.854,1.171c0.312,0.05,0.877-0.315,1.156-0.456
							c0.331-0.16,0.662-0.325,0.983-0.505c0.491-0.251,0.97-0.437,1.503-0.578c0.216,0.38-0.34,0.834-0.566,1.083
							c0.427,0.194,1.102-0.276,1.434-0.505c0.39-0.251,0.848-0.414,1.288-0.576c0.389-0.14,0.949-0.416,1.407-0.414
							c0.788,0.021,0.14,0.516-0.034,0.864c0.596-0.561,1.37-0.781,2.058-1.124c0.68-0.326,1.351-0.692,2.066-0.849
							c0.114,0.706-0.634,0.806-0.779,1.357c0.288,0.254,0.578-0.222,0.791-0.375c0.273-0.194,0.593-0.257,0.891-0.404
							c0.538-0.288,1.053-0.618,1.554-0.958c0.412-0.289,0.847-0.762,1.326-0.981c0.771-0.368,0.025,1.126-0.084,1.467
							c1.081-1.06,2.259-1.814,3.569-2.548c0.587-0.331,1.281-0.783,1.773-1.249c0.452-0.432,0.981-0.724,1.393-1.208
							c0.618-0.741,0.476-1.293,0.379-2.19c-0.118-1.067-0.659-1.51-1.205-2.307c-0.367-0.175-0.74-0.51-1.146-0.721
							c-0.36-0.189-0.779-0.363-1.194-0.497c-0.589-0.198-1.554-0.491-2.343-0.491
							C1576.835,489.742,1576.583,489.776,1576.374,489.864"/>
					</defs>
					<clipPath id="SVGID_16_">
						<use xlink:href="#SVGID_15_"  overflow="visible"/>
					</clipPath>
					
						<linearGradient id="SVGID_17_" gradientUnits="userSpaceOnUse" x1="932.3354" y1="535.5972" x2="933.5747" y2="535.5972" gradientTransform="matrix(2.9646 -13.1553 13.1553 2.9646 -8239.6699 11180.3184)">
						<stop  offset="0" style="stop-color:#00BB21"/>
						<stop  offset="1" style="stop-color:#009123"/>
					</linearGradient>
					<polygon clip-path="url(#SVGID_16_)" fill="url(#SVGID_17_)" points="1557.013,503.27 1561.183,484.772 1586.283,490.427 
						1582.116,508.927 					"/>
				</g>
			</g>
			<g>
				<g>
					<defs>
						<path id="SVGID_18_" d="M1588.22,568.208c-0.246-0.154-0.536-0.388-0.846-0.636
							C1587.599,567.889,1587.868,568.122,1588.22,568.208"/>
					</defs>
					<clipPath id="SVGID_19_">
						<use xlink:href="#SVGID_18_"  overflow="visible"/>
					</clipPath>
					
						<linearGradient id="SVGID_20_" gradientUnits="userSpaceOnUse" x1="945.2437" y1="479.1089" x2="946.5045" y2="479.1089" gradientTransform="matrix(-16.7357 -57.4825 57.4825 -16.7357 -10124.2217 62952.207)">
						<stop  offset="0" style="stop-color:#00BB21"/>
						<stop  offset="1" style="stop-color:#009123"/>
					</linearGradient>
					<polygon clip-path="url(#SVGID_19_)" fill="url(#SVGID_20_)" points="1587.442,568.436 1587.205,567.624 1588.153,567.345 
						1588.392,568.16 					"/>
				</g>
			</g>
			<g>
				<g>
					<defs>
						<path id="SVGID_21_" d="M1584.962,556.904c-1.244,0.232-2.605-1.043-3.695-1.353l0.152,0.929
							c-1.01-0.733-1.918-2.725-3.226-2.769c-0.489,2.729,0.806,4.341,1.7,6.766c0.093,0.015,0.178,0.028,0.259,0.051
							c0.536,2.031,1.462,6.033,3.877,6.446c0.093-0.6-0.088-1.158-0.425-1.646c1.17-0.008,2.625,1.318,3.77,2.244
							c-0.581-0.836-0.765-2.244-0.939-3.057c4.231-0.09,6.276,6.153,9.974,7.268c-0.241-1.1-1.078-2.468-1.661-3.513
							c1.551-0.095,4.037,2.243,5.068,3.055c-0.204-0.775-0.736-1.359-0.576-2.289c1.721-0.132,3.694,1.93,5.242,2.565
							c-0.245-1.083-0.889-2.137-0.834-3.228c2.307,0.875,4.183,2.601,6.373,3.453c1.589,0.619,4.176,0.637,5.62,1.551
							c0.135-1.95-4.019-4.779-5.434-5.912c-1.948-1.564-4.024-2.741-6.151-3.902c-4.944-2.71-10.202-4.847-14.587-8.178
							c-2.113-1.589-4.336-1.76-6.629-3.001C1582.486,554.32,1584.053,555.61,1584.962,556.904"/>
					</defs>
					<clipPath id="SVGID_22_">
						<use xlink:href="#SVGID_21_"  overflow="visible"/>
					</clipPath>
					
						<linearGradient id="SVGID_23_" gradientUnits="userSpaceOnUse" x1="945.2007" y1="479.189" x2="946.4396" y2="479.189" gradientTransform="matrix(-16.6658 -57.2423 57.2423 -16.6658 -10071.1045 62687.0664)">
						<stop  offset="0" style="stop-color:#00BB21"/>
						<stop  offset="1" style="stop-color:#009123"/>
					</linearGradient>
					<polygon clip-path="url(#SVGID_22_)" fill="url(#SVGID_23_)" points="1580.681,583.599 1572.069,554.025 1612.801,542.167 
						1621.411,571.742 					"/>
				</g>
			</g>
			<g>
				<g>
					<defs>
						<path id="SVGID_24_" d="M1582.089,486.795c-0.139-0.1-0.307-0.228-0.482-0.376
							C1581.732,486.603,1581.887,486.74,1582.089,486.795"/>
					</defs>
					<clipPath id="SVGID_25_">
						<use xlink:href="#SVGID_24_"  overflow="visible"/>
					</clipPath>
					
						<linearGradient id="SVGID_26_" gradientUnits="userSpaceOnUse" x1="936.8013" y1="486.5835" x2="938.0096" y2="486.5835" gradientTransform="matrix(-9.7905 -33.6276 33.6276 -9.7905 -5603.9404 36770.3359)">
						<stop  offset="0" style="stop-color:#00BB21"/>
						<stop  offset="1" style="stop-color:#009123"/>
					</linearGradient>
					<polygon clip-path="url(#SVGID_25_)" fill="url(#SVGID_26_)" points="1581.644,486.926 1581.509,486.448 1582.053,486.291 
						1582.192,486.765 					"/>
				</g>
			</g>
			<g>
				<g>
					<defs>
						<path id="SVGID_27_" d="M1580.214,480.255c-0.725,0.133-1.515-0.603-2.139-0.785l0.087,0.54
							c-0.588-0.425-1.114-1.568-1.867-1.602c-0.283,1.576,0.466,2.511,0.987,3.913c0.053,0.006,0.102,0.02,0.146,0.027
							c0.313,1.177,0.847,3.493,2.242,3.734c0.059-0.352-0.049-0.68-0.242-0.957c0.681,0,1.519,0.759,2.179,1.293
							c-0.34-0.478-0.444-1.293-0.547-1.763c2.451-0.049,3.633,3.564,5.77,4.203c-0.138-0.637-0.622-1.433-0.959-2.035
							c0.895-0.055,2.33,1.297,2.926,1.771c-0.111-0.452-0.42-0.787-0.327-1.323c0.995-0.079,2.132,1.107,3.03,1.48
							c-0.144-0.624-0.51-1.232-0.484-1.866c1.334,0.51,2.418,1.5,3.682,1.997c0.921,0.36,2.416,0.364,3.253,0.899
							c0.083-1.132-2.322-2.77-3.138-3.427c-1.134-0.896-2.325-1.582-3.559-2.248c-2.865-1.571-5.9-2.809-8.438-4.726
							c-1.218-0.923-2.506-1.025-3.838-1.744C1578.779,478.759,1579.683,479.504,1580.214,480.255"/>
					</defs>
					<clipPath id="SVGID_28_">
						<use xlink:href="#SVGID_27_"  overflow="visible"/>
					</clipPath>
					
						<linearGradient id="SVGID_29_" gradientUnits="userSpaceOnUse" x1="936.4517" y1="486.9058" x2="937.6906" y2="486.9058" gradientTransform="matrix(-9.6359 -33.0967 33.0967 -9.6359 -5498.9395 36187.8203)">
						<stop  offset="0" style="stop-color:#00BB21"/>
						<stop  offset="1" style="stop-color:#009123"/>
					</linearGradient>
					<polygon clip-path="url(#SVGID_28_)" fill="url(#SVGID_29_)" points="1577.733,495.692 1572.755,478.589 1596.309,471.73 
						1601.288,488.833 					"/>
				</g>
			</g>
			<g>
				<g>
					<defs>
						<path id="SVGID_30_" d="M1579.1,536.917c-0.773,0.538-1.563,0.911-2.329,1.43c-1.419,0.954-2.974,1.804-4.158,2.938
							c-0.995,0.961-2.088,1.968-3.068,3.071c-0.566,0.641-1.018,1.122,0.025,1.405c0.82,0.217,1.473-0.468,2.208-0.524
							c0.391,2.464-3.1,3.797-4.639,4.849c-1.856,1.261-4.142,1.838-5.704,3.595c1.196,0.425,2.723-0.161,3.777-0.71
							c0.426,1.537-3.374,3.189-4.521,3.676c-1.918,0.801-3.823,1.797-5.818,2.369c0.005,0.043,0.005,0.242,0,0.284
							c0.898,0.14,1.543,0.653,2.526,0.543c0.821-0.084,1.59-0.537,2.413-0.627c0.406,0.867-0.273,1.338-0.386,2.098
							c2.216-0.852,4.672-1.439,7.047-1.987c0.482,0.413,0.369,1.215,0.576,1.783c1.316-0.449,2.198-1.594,3.487-2.196
							c0.556-0.257,0.435-0.72,0.92,0c0.202,0.299,0.183,0.844,0.04,1.238c0.668-1.11,3.218-2.175,4.195-2.87
							c1.498-1.061,3.332-1.943,4.445-3.28c1.198-1.438,1.704-2.926,1.719-4.847c0.027-2.216,0.368-3.795,1.347-5.752
							c0.652-1.305,2.199-3.984,1.645-5.502c-0.426-1.165-2.891-2.922-4.045-2.415l0.422-0.42
							C1580.482,535.566,1579.859,536.392,1579.1,536.917"/>
					</defs>
					<clipPath id="SVGID_31_">
						<use xlink:href="#SVGID_30_"  overflow="visible"/>
					</clipPath>
					
						<linearGradient id="SVGID_32_" gradientUnits="userSpaceOnUse" x1="950.2412" y1="493.2632" x2="951.4807" y2="493.2632" gradientTransform="matrix(11.0239 -36.1481 36.1481 11.0239 -26742.6211 29482.4355)">
						<stop  offset="0" style="stop-color:#00BB21"/>
						<stop  offset="1" style="stop-color:#009123"/>
					</linearGradient>
					<polygon clip-path="url(#SVGID_31_)" fill="url(#SVGID_32_)" points="1547.522,559.071 1557.469,526.458 1592.751,537.218 
						1582.805,569.832 					"/>
				</g>
			</g>
			<g>
				<g>
					<defs>
						<path id="SVGID_33_" d="M1576.585,522.938h1.082c-1.013,0.178-2.063,1.055-3.057,1.427c-1.122,0.429-2.309,0.802-3.429,1.254
							c-1.139,0.458-2.145,1.229-3.246,1.789c-0.741,0.379-2.311,1.042-2.481,1.938c0.897,0.489,1.194,0.526,1.904-0.095
							c0.59-0.523,1.051-0.802,1.814-0.898c0.061,0.861-2.797,2.839-3.548,3.419c0.39,0.568,1.23,0.166,2.032-0.238
							c0.538-0.271,1.061-0.541,1.412-0.516c0.113,1.003-0.792,1.879-1.279,2.632c0.425-0.089,0.915-0.382,1.31-0.57
							c1.18-0.545,2.305-0.995,3.551-1.34c0.534-0.146,1.115-0.719,1.363-0.093c0.184,0.457-0.438,1.135-0.39,1.599
							c0.656-0.279,2.319-0.742,2.556-1.484c0.381,0.141,0.499,1.019,0.971,0.89c0.269-0.075,0.488-1.097,0.598-1.271
							c0.694-1.076,1.468-0.631,1.68,0.522c0.681,0.03,1.21-0.037,1.835-0.296c0.839-0.359,0.789-0.328,1.382,0.426
							c-0.39-0.667,1.024-2.995,1.494-3.455c-0.014-0.517,0.346-0.909,0.45-1.396c0.117-0.607-0.021-1.002-0.174-1.58
							c-0.259-1.008-0.521-1.889-1.766-1.827c-0.452,0.015-1.02,0.368-1.496,0.313c-0.634-0.074-0.671-0.465-1.155-0.796
							c-0.529-0.351-1.367-0.513-2.152-0.513C1577.382,522.776,1576.937,522.833,1576.585,522.938"/>
					</defs>
					<clipPath id="SVGID_34_">
						<use xlink:href="#SVGID_33_"  overflow="visible"/>
					</clipPath>
					
						<linearGradient id="SVGID_35_" gradientUnits="userSpaceOnUse" x1="979.1553" y1="545.3647" x2="980.3944" y2="545.3647" gradientTransform="matrix(9.2394 -7.9304 7.9304 9.2394 -11801.1299 3258.2827)">
						<stop  offset="0" style="stop-color:#00BB21"/>
						<stop  offset="1" style="stop-color:#009123"/>
					</linearGradient>
					<polygon clip-path="url(#SVGID_34_)" fill="url(#SVGID_35_)" points="1560.081,527.389 1576.537,513.262 1590.077,529.04 
						1573.62,543.163 					"/>
				</g>
			</g>
			<g>
				<g>
					<defs>
						<path id="SVGID_36_" d="M1589.438,532.85c-0.256-1.155-1.135-2.594-1.742-3.688c1.627-0.102,4.236,2.359,5.323,3.213
							c-0.206-0.818-0.773-1.427-0.604-2.407c1.807-0.137,3.876,2.021,5.504,2.694c-0.249-1.136-0.921-2.244-0.87-3.391
							c2.425,0.919,4.397,2.728,6.694,3.633c1.672,0.65,4.389,0.663,5.897,1.624c0.149-2.045-4.215-5.024-5.699-6.212
							c-2.052-1.648-4.223-2.879-6.467-4.1c-5.203-2.843-10.714-5.1-15.331-8.591c-2.218-1.682-4.551-1.853-6.967-3.159
							C1574.812,514.5,1585.551,531.686,1589.438,532.85"/>
					</defs>
					<clipPath id="SVGID_37_">
						<use xlink:href="#SVGID_36_"  overflow="visible"/>
					</clipPath>
					
						<linearGradient id="SVGID_38_" gradientUnits="userSpaceOnUse" x1="945.8799" y1="478.7065" x2="947.1198" y2="478.7065" gradientTransform="matrix(-17.4972 -60.0979 60.0979 -17.4972 -10613.1904 65791.3516)">
						<stop  offset="0" style="stop-color:#00BB21"/>
						<stop  offset="1" style="stop-color:#009123"/>
					</linearGradient>
					<polygon clip-path="url(#SVGID_37_)" fill="url(#SVGID_38_)" points="1577.544,543.917 1568.889,514.189 1607.059,503.078 
						1615.714,532.804 					"/>
				</g>
			</g>
			<g>
				<g>
					<defs>
						<path id="SVGID_39_" d="M1559.555,601.712c0.429-0.359,0.931-0.878,1.345-1.404
							C1560.406,600.75,1559.953,601.212,1559.555,601.712"/>
					</defs>
					<clipPath id="SVGID_40_">
						<use xlink:href="#SVGID_39_"  overflow="visible"/>
					</clipPath>
					
						<linearGradient id="SVGID_41_" gradientUnits="userSpaceOnUse" x1="978.8491" y1="489.8472" x2="980.1023" y2="489.8472" gradientTransform="matrix(32.1519 -5.9944 5.9944 32.1519 -32861.6641 -9278.3594)">
						<stop  offset="0" style="stop-color:#00BB21"/>
						<stop  offset="1" style="stop-color:#009123"/>
					</linearGradient>
					<polygon clip-path="url(#SVGID_40_)" fill="url(#SVGID_41_)" points="1559.302,600.357 1560.854,600.067 1561.15,601.665 
						1559.6,601.954 					"/>
				</g>
			</g>
			<g>
				<g>
					<defs>
						<path id="SVGID_42_" d="M1573.771,574.456c-1.964,1.254-5.847,0.627-7.24,2.689l-0.173,0.175
							c-1.335-0.7-4.518,1.54-5.761,2.19c-1.647,0.848-3.408,1.826-5.167,2.386c1.486,1.173,3.809,0.111,5.065,1.138
							c-2.42,2.768-6.428,3.462-9.303,5.565c1.183,1.358,3.391,0.402,4.87,0.36c0.411,1.808-2.233,4.13-2.991,5.664
							c1.429,0.123,3.202-1.085,4.538-1.65c1.152-0.491,2.618-1.126,1.892,0.851c-0.427,1.177-2.388,2.17-3.278,2.986
							c-0.785,0.717-1.534,1.577-2.195,2.52c-0.785,1.133-1.037,2.216,0.497,0.688c0.367-0.369,2.632-1.768,3.475-2.359
							c0.858-0.601,2.087-1.265,3.274-1.189c1.708,0.117,0.637,2.421-0.084,3.461c-0.092,0.128-0.19,0.254-0.291,0.379
							c1.287-1.163,2.826-2.09,4.418-2.453c3.767-0.859,0.425,3.733,0.226,5.357c1.59-0.049,2.393-2.212,3.853-2.459
							c2.326-0.4,0.595,2.887,0.521,4.155c5.512-1.413,5.85-9.937,7.183-14.324c1.397-4.625,2.139-10.91,1.516-15.996
							c-0.155-1.247-0.715-1.675-1.432-1.675C1576.122,572.91,1574.718,573.851,1573.771,574.456"/>
					</defs>
					<clipPath id="SVGID_43_">
						<use xlink:href="#SVGID_42_"  overflow="visible"/>
					</clipPath>
					
						<linearGradient id="SVGID_44_" gradientUnits="userSpaceOnUse" x1="978.9111" y1="489.8042" x2="980.1502" y2="489.8042" gradientTransform="matrix(32.0641 -5.978 5.978 32.0641 -32771.2461 -9260.4609)">
						<stop  offset="0" style="stop-color:#00BB21"/>
						<stop  offset="1" style="stop-color:#009123"/>
					</linearGradient>
					<polygon clip-path="url(#SVGID_43_)" fill="url(#SVGID_44_)" points="1545.43,573.986 1578.295,567.861 1585,603.833 
						1552.137,609.958 					"/>
				</g>
			</g>
			<g>
				<g>
					<defs>
						<path id="SVGID_45_" d="M1585.037,599.919c-0.267-0.177-0.579-0.42-0.912-0.687
							C1584.364,599.575,1584.66,599.833,1585.037,599.919"/>
					</defs>
					<clipPath id="SVGID_46_">
						<use xlink:href="#SVGID_45_"  overflow="visible"/>
					</clipPath>
					
						<linearGradient id="SVGID_47_" gradientUnits="userSpaceOnUse" x1="946.105" y1="478.3042" x2="947.3133" y2="478.3042" gradientTransform="matrix(-18.0708 -62.0683 62.0683 -18.0708 -10996.7158 67998.2422)">
						<stop  offset="0" style="stop-color:#00BB21"/>
						<stop  offset="1" style="stop-color:#009123"/>
					</linearGradient>
					<polygon clip-path="url(#SVGID_46_)" fill="url(#SVGID_47_)" points="1584.197,600.166 1583.94,599.287 1584.965,598.99 
						1585.223,599.869 					"/>
				</g>
			</g>
			<g>
				<g>
					<defs>
						<path id="SVGID_48_" d="M1581.513,587.66c-1.353,0.247-2.837-1.138-4.016-1.479l0.17,1.014
							c-1.106-0.798-2.088-2.95-3.508-3.005c-0.527,2.961,0.874,4.708,1.853,7.34c0.097,0.02,0.189,0.039,0.28,0.058
							c0.583,2.201,1.58,6.544,4.201,6.999c0.102-0.655-0.084-1.267-0.465-1.788c1.277-0.006,2.859,1.427,4.097,2.435
							c-0.628-0.904-0.829-2.435-1.022-3.322c4.602-0.1,6.82,6.688,10.82,7.895c-0.255-1.201-1.161-2.694-1.792-3.818
							c1.681-0.104,4.374,2.437,5.496,3.312c-0.222-0.831-0.801-1.463-0.625-2.476c1.866-0.148,4.008,2.092,5.691,2.78
							c-0.266-1.169-0.967-2.318-0.907-3.509c2.501,0.956,4.542,2.822,6.914,3.751c1.725,0.676,4.528,0.693,6.099,1.685
							c0.147-2.117-4.358-5.19-5.892-6.419c-2.116-1.692-4.366-2.969-6.68-4.233c-5.374-2.933-11.062-5.259-15.835-8.87
							c-2.287-1.727-4.701-1.913-7.191-3.264C1578.821,584.852,1580.52,586.247,1581.513,587.66"/>
					</defs>
					<clipPath id="SVGID_49_">
						<use xlink:href="#SVGID_48_"  overflow="visible"/>
					</clipPath>
					
						<linearGradient id="SVGID_50_" gradientUnits="userSpaceOnUse" x1="946.0996" y1="478.3354" x2="947.3397" y2="478.3354" gradientTransform="matrix(-18.0827 -62.1093 62.1093 -18.0827 -10996.3877 68040.7266)">
						<stop  offset="0" style="stop-color:#00BB21"/>
						<stop  offset="1" style="stop-color:#009123"/>
					</linearGradient>
					<polygon clip-path="url(#SVGID_49_)" fill="url(#SVGID_50_)" points="1576.859,616.619 1567.517,584.525 1611.717,571.659 
						1621.06,603.749 					"/>
				</g>
			</g>
			<g>
				<g>
					<defs>
						<rect id="SVGID_51_" x="1526.576" y="438.95" width="165.249" height="228.903"/>
					</defs>
					<clipPath id="SVGID_52_">
						<use xlink:href="#SVGID_51_"  overflow="visible"/>
					</clipPath>
					<g clip-path="url(#SVGID_52_)">
						<g>
							<g opacity="0.3">
								<defs>
									<rect id="SVGID_53_" x="1557.435" y="439.706" opacity="0.3" width="51.163" height="187.502"/>
								</defs>
								<clipPath id="SVGID_54_">
									<use xlink:href="#SVGID_53_"  overflow="visible"/>
								</clipPath>
								<g clip-path="url(#SVGID_54_)">
									<g>
										<defs>
											<path id="SVGID_55_" d="M1579.14,439.732c0.155,0.335,0.279,0.723,0.385,1.152c0.526,2.115,0.557,5.189,1.153,7.392
												c0.556,2.072,2.335,5.567,1.972,7.687c-0.443-0.537-0.652-0.867-1.147-0.776c-0.166,2.145-0.454,3.004,0.425,4.714
												c0.515,1,1.288,2.712,1.885,3.106c0.817,2.344,2.059,3.882,3.244,5.499c-0.7-0.342-1.61-1.958-2.449-1.705
												c-0.095,0.738-0.117,1.559-0.095,2.387c-0.844,0.188-1.533-1.786-2.348-1.936c0.192,3.984,0.974,8.91,2.579,11.146
												c1.921,2.661,4.229,4.193,6.296,6.502c0.037,1.409,0.453,2.596,0.15,3.95c-0.534-0.422-1.342-1-1.909-0.825
												c-0.061,1.179,0.138,2.125,0.115,3.292c-0.349-0.484-0.821-0.514-1.178-0.215c0.478,2.028,1.037,3.918,1.641,5.818
												c-1.27-0.784-2.464-2.524-3.858-2.404c-1.812,6.993,10.111,10.785,11.548,13.587c-1.015,0.04-2.177-0.833-3.116-0.361
												c0.096,1.293,0.402,1.961,0.703,3.063c-0.704-0.182-2.209-3.324-2.544-0.728c-0.861-0.511-1.691-2.061-2.64-1.943
												c-0.042,0.812,0.063,1.799,0.122,2.465c-0.833-1.095-2.037-3.099-2.986-2.896c0.301,1.832,0.887,3.699,1.194,5.588
												c-1.095-1.401-4.058-5.003-5.334-2.448c-1.132,2.266,2.881,5.931,3.674,6.869c1.405,1.668,2.899,3.662,4.333,5.588
												c1.525,2.062,3.119,3.712,4.777,5.301c1.178,1.108,3.925,2.513,4.024,5.823c-1.065,0.458-3.21-4.058-4.106-1.964
												c0.899,2.573,2.368,3.985,3.259,6.613c-0.929-0.903-2.029-1.458-2.992-2.369c-0.906-0.859-2.063-2.628-3.077-2.201
												c0.043,1.012,0.238,1.805,0.219,2.848c-0.852-0.722-2.093-2.137-3.049-1.729c-0.005,2.3,1.081,3.844,1.264,5.932
												c-0.88-1.334-3.55-4.112-4.53-3.283c0.771,2.075,2.067,4.075,3.014,5.604c1.446,2.301,3.357,6.489,5.086,7.601
												c-0.874-0.742-1.877-1.677-2.807-1.553c0.075,1.515,0.35,2.74,0.839,3.929c-0.195-0.298-0.262-0.215-0.489-0.422
												c-1.06-1.918-2.978-2.321-4.421-2.156c0.031,2.773,1.919,4.915,2.908,6.282c1.394,1.948,2.785,3.92,4.283,5.753
												c1.667,2.039,3.344,3.442,4.963,5.29c1.415,1.614,3.647,3.284,4.559,6.03c-1.042,0.373-2.115-1.124-3.157-1.256
												c0.1,1.369,0.658,3.081-0.16,4.002c-0.528,0.609-1.728-0.436-2.255-0.681c-1.422-0.639-2.972-2.945-4.508-1.963
												c0.032,0.442-0.054,1.062-0.008,1.485c-1.086,2.717-4.38-0.656-5.805,0.714c2.51,3.683,4.803,5.812,7.949,5.799
												c1.495,0,3.012-0.216,4.486-0.225c1.361-0.007,2.671,1.069,3.984,1.818c0.719,1.595,3.785,2.782,3.349,6.353
												c-1.857-0.452-3.723-0.61-5.582-0.835c-0.319-0.593-1.549-1.482-1.997-0.683c-0.631,1.122,0.223,2.783,0.27,4.266
												c-1.994,0.047-3.788-2.024-5.897-1.703c0.88,3.797,3.808,5.286,5.347,7.599c0.734,1.105,2.992,3.123,3.274,5.04
												c0.37,2.432-1.599,1.594-2.222,1.126c-0.502-1.134-2.063-3.33-2.9-2.776c0.24,1.65,0.65,3.019,1.155,4.331
												c-1.331,0.271-2.738-1.459-4.177-1.255c0.938,6.033,4.897,7.614,5.869,13.557c-1.487-0.562-3.418-3.961-4.921-3.487
												c0.457,1.619,0.604,3.487,0.55,5.517c-1.108-1.026-2.054-2.711-3.022-4.155c-0.819-1.234-2.1-4.27-3.068-4.27
												c-0.064,2.608,0.972,4.705,0.366,7.518c-1.243-0.437-2.16-4.529-3.602-4.39c-0.064,1.71,0.096,3.896,0.291,5.549
												c0.21,1.827,1.03,3.652,0.646,5.584c-2.557-1.959-3.734-6.214-5.121-10.712l-0.749-2.457
												c-0.066-0.128-0.128-0.108-0.124-0.404c-0.867-0.878-1.005-1.119-1.738,0.359c-0.492,0.985-1.545,2.701-1.469,4.279
												c-0.325-1.143-0.28-2.736-0.458-4.142c-2.05-0.9-1.947,6.481-3.017,8.171c-0.094-1.968,0.09-4.306-0.996-2.669
												c-0.867,1.31-0.573,3.581-1.762,2.239c-0.344-0.385,0.008-1.187-0.558-1.351c-0.279-0.072-0.661,0.824-0.879,1.188
												c-0.534,0.853-1.219,2.324-1.698,3.462c0.16-2.692,1.801-5.283,1.596-8.179c-1.239,0.445-3.515,4.095-4.448,6.199
												c0.477-1.557,1.197-3.839,1.21-5.937c-0.677,1.242-1.91,3.004-2.693,3.664c0.289-3.085,2.577-4.752,3.751-6.455
												c1.15-1.66,4.541-5.541,4.173-9.317c-1.557-0.444-3.219,2.338-4.501,3.776c-1.085,1.209-2.155,4.703-3.205,5.105
												c0.072-2.064,0.97-3.706,0.899-5.974c-0.756,0.677-1.481,1.592-2.18,2.393c-0.717,0.825-1.748,2.811-2.59,2.738
												c0.866-2.265,2.303-3.454,2.004-6.854c-2.375-0.771-4.536,6.048-6.945,5.244c0.151-2.266,3.435-5.09,4.414-6.175
												c1.448-1.597,4.594-6.407,3.98-10.93c-1.191,0.724-2.052,1.854-3.29,2.13c0.465-2.306,2.196-6.702-0.083-5.102
												c-1.056,0.743-2.466,3.216-3.61,3.097c-0.031-2.036,2.154-3.197,2.846-3.902c1.621-1.662,2.654-3.757,4.264-5.003
												c0.739-0.562,1.619-1.302,2.322-2.021c0.991-1.015,1.229-2.306,1.973-3.612c0.035-0.385,0.025-0.891-0.013-1.271
												c-0.578-0.043-1.011,0.67-1.599,0.607c0.183-2.345,3.812-3.746,4.819-4.843c1.373-1.5,4.32-5.021,4.568-8.744
												c-1.607-0.178-2.963,0.567-4.458,1.105c-0.798,0.288-1.639,0.577-2.444,0.906c-1.238,0.506-1.124-0.088-1.137-2.075
												c-1.027,1.113-2.297,1.63-3.23,3.114c0.305-1.639,1.231-3.14,1.551-4.828c-1.262,1.581-3.124,1.835-4.537,3.253
												c0.317-0.885,0.71-2.055,0.571-3.322c-0.211-1.891-0.593-1.168-1.338-0.607c-0.683,0.523-2.808,3.567-3.345,2.454
												c0.727-2.207,2.664-3.464,3.756-4.669c1.159-1.296,2.366-2.525,3.624-3.555c1.401-1.148,2.815-2.539,4.093-3.924
												c0.945-1.039,2.671-4.281,2.563-6.85c-1.307-0.517-1.949,2.354-3.11,2.169c0.598-1.814,2.087-2.758,2.813-4.375
												c1.021-2.269,1.597-4.966,1.482-8.297c-1.065-0.276-2.349,1.717-3.304,2.454c-1.338,1.016-3.176-0.377-3.638,3.724
												c-0.134-1.63,0.219-3.308-0.767-2.896c-0.742,0.312-1.589,2.103-2.197,2.962c-0.67,0.971-1.896,2.963-1.847,0.576
												c0.034-1.948,0.764-2.663,0.66-5.011c-1.266-0.436-2.382,2.329-3.524,1.715c0.439-1.966,2.502-3.265,3.407-3.77
												c1.5-0.827,3.054-1.691,4.473-2.837c1.519-1.222,3.039-2.665,4.52-4.305c1.072-1.193,3.672-4.919,3.34-8.038
												c-0.535,0.865-1.19,1.715-1.528,3.034c0.363-1.319,1.313-3.23,1.096-5.043c-0.961,1.495-2.216,2.487-3.194,3.765
												c-1.001,1.299-2.396,3.973-3.635,2.969c0.541,0,0.969-0.535,1.505-0.534c0.32-0.453,0.87-1.013,1.129-1.93
												c0.721-0.535,1.131-2.144,1.673-3.347c0.935-2.059,2.14-4.125,2.687-6.905c-0.535,1.04-2.186,3.497-2.855,2.833
												c1.187-2.692,5.435-8.815,5.024-13.392c-1.162,1.354-2.271,3.355-3.485,4.727c-0.89,1-3.273,3.271-2.974,6.171
												c0.031-0.006,0.252-0.006,0.278,0c0.018-1.209,0-2.469-0.052-3.683c-0.666-0.404-1.544,1.422-1.784,2.414
												c-0.271-3.427-2.444,2.197-3.22,2.628c0.083-1.202,0.279-2.414,0.332-3.699c-0.948,1.019-1.833,2.671-2.882,3.25
												c-0.028-2.788,1.76-4.525,1.396-7.761c-1.146,0.007-1.887,1.867-3.119,1.721c0.246-1.241,2.176-2.229,2.833-2.827
												c0.925-0.838,1.657-1.873,2.593-2.898c1.674-1.824,5.09-5.084,5.887-9.203c-0.417,1.053-1.599,2.65-2.3,2.403
												c0.183-0.588,0.429-1.246,0.571-1.94c-0.525,0.329-1.134,0.196-1.692,0.196c1.995-0.412,6.398-7.189,5.938-12.219
												c-0.547,0.769-1.186,1.595-1.796,2.358c-0.034-0.938,0.146-1.685,0.274-2.59c-0.792,1.084-2.27,2.766-3.238,2.343
												c0.948-2.004,2.433-3.576,3.487-5.539c0.91-1.705,3.156-6.244,2.559-9.165c-0.647,1.992-3.1,5.081-4.32,4.883
												c0.442-1.572,0.958-3.251,1.315-5.015c-0.221,0.149-0.484,0.391-0.672,0.618c-0.354,0.964-1.266,1.807-1.916,1.712
												c-0.208-1.928,1.18-2.67,1.766-3.363c0.891-1.055,1.55-2.104,2.311-3.532c1.176-2.228,2.539-4.807,2.208-8.696
												c-0.353,0.646-0.813,1.396-1.276,1.497c0.171-1.713,0.729-3.067,0.266-4.855c-0.365,0.976-0.802,2.25-1.427,1.497
												c1.161-3.048,1.718-8.422,2.377-12.241C1578.141,441.526,1579.003,439.455,1579.14,439.732"/>
										</defs>
										<clipPath id="SVGID_56_">
											<use xlink:href="#SVGID_55_"  overflow="visible"/>
										</clipPath>
										
											<linearGradient id="SVGID_57_" gradientUnits="userSpaceOnUse" x1="977.0547" y1="481.8696" x2="978.2943" y2="481.8696" gradientTransform="matrix(41.5158 -0.062 0.5415 41.152 -39267.7734 -19235.957)">
											<stop  offset="0" style="stop-color:#00AD1C"/>
											<stop  offset="1" style="stop-color:#00851E"/>
										</linearGradient>
										<polygon clip-path="url(#SVGID_56_)" fill="url(#SVGID_57_)" points="1554.964,439.458 1608.987,439.376 
											1611.458,627.204 1557.435,627.283 										"/>
									</g>
								</g>
							</g>
						</g>
					</g>
				</g>
			</g>
		</g>
	</g>
</g>
<g>
	<g>
		<g>
			<path opacity="0.1" d="M648.709,516.784c-1.189-0.193-2.311-0.554-3.574-0.73c-2.589-0.364-5.864-0.126-8.526-0.212
				c-3.949-0.132-7.885-0.595-11.799-0.729c-2.787-0.091-6.337,0.137-8.798-0.721c-0.504-1.803,3.155-2.278,4.729-2.941
				c-2.871-0.558-17.162,3.043-16.441-0.779c-5.078-0.185-10.083,0.353-14.824,1.372h-3.015c-1.867,0.886-8.69,2.951-8.399,4.719
				c2.4,0.674,5.341-0.349,7.767,0.185c1.027,2.242-5.773,3.225-7.79,3.737c-1.798,0.461-3.944,1.85-0.819,2.099
				c2.314,0.188,5.375-1.27,7.649-1.679c3.169-0.562,6.359-0.928,9.258,0.274c5.12,2.126,8.892-1.857,13.621-2.737
				c3.322-0.624,7.254,1.858,10.795,2.051c4.034,0.214,6.665-1.624,10.073-2.4c1.849-0.423,3.686-0.886,5.689-0.569
				c1.958,0.308,3.823,1.026,5.977,1.159c2.582,0.162,9.589,0.805,11.384-0.734c0.235-0.199,0.551-0.423,0.68-0.663
				C651.399,516.895,649.897,516.984,648.709,516.784"/>
			<g>
				<g>
					<defs>
						<path id="SVGID_58_" d="M612.479,465.547c-0.232-0.091-0.472-0.188-0.718-0.28
							C612.001,465.383,612.241,465.478,612.479,465.547 M590.874,451.953c0.066-0.104,0.149-0.216,0.239-0.334
							C591.024,451.724,590.944,451.834,590.874,451.953 M587.759,446.681c0.028-0.006,0.269-0.006,0.295,0
							c0.021-0.361,0.028-0.729,0.025-1.097C587.818,445.921,587.68,446.29,587.759,446.681 M596.005,411.331
							c-0.764,1.881-1.444,4.533-2.739,6.033c0.667,0.372,1.154-0.252,1.562-0.734c0.475,0.881-0.148,1.546-0.354,2.39
							c0.498-0.045,1.008-0.418,1.4-0.735c0.298,1.92-1.208,3.191-2.512,4.284c-0.838,0.705-1.565,1.222-2.542,1.743
							c-0.642,0.34-2.159,0.705-1.959,1.656c0.705,0.046,1.704-0.364,2.095-0.844c0.205-0.112,0.497-0.231,0.74-0.306
							c-0.413,0.867-0.996,1.696-1.49,2.473c1.311,0.102,4.001-1.42,4.729-2.405c0.603,1.443-1.881,3.677-2.897,4.517
							c-1.168,0.972-2.784,1.742-3.843,2.73c1.042,0.206,2.662-0.619,3.524-1.154c-0.143,0.447-0.349,0.817-0.323,1.276
							c0.667-0.373,1.376-0.783,1.976-1.161c0.425,2.479-4.432,5.818-6.586,6.021c0.604,0,1.253,0.067,1.828-0.097
							c-0.17,0.345-0.439,0.667-0.647,0.956c0.755,0.12,2.047-0.66,2.514-1.183c-0.916,2.03-4.652,3.637-6.485,4.536
							c-1.023,0.504-1.829,1.013-2.841,1.426c-0.719,0.293-2.816,0.779-3.099,1.392c1.329,0.072,2.155-0.845,3.391-0.845
							c0.351,1.594-1.599,2.449-1.618,3.822c1.148-0.283,2.123-1.1,3.157-1.598c-0.075,0.63-0.299,1.227-0.401,1.822
							c0.832-0.212,3.267-2.983,3.503-1.293c0.275-0.493,1.258-1.389,1.968-1.19c0.014,0.237,0.022,0.479,0.025,0.722
							c0.695-0.898,2.264-1.586,2.975-1.946c1.333-0.674,2.556-1.66,3.834-2.329c0.374,2.258-4.3,5.275-5.619,6.603
							c0.712,0.326,2.526-0.882,3.118-1.396c-0.629,1.37-1.954,2.389-2.993,3.402c-0.604,0.593-1.069,1.387-1.855,1.645
							c-0.293,0.453-0.894,0.729-1.249,0.955c-0.577-0.003-1.043,0.262-1.626,0.266c1.321,0.49,2.871-0.829,3.959-1.463
							c1.075-0.629,2.448-1.118,3.504-1.854c0.179,0.746-0.535,1.535-1.015,2.153c0.404-0.472,0.975-0.816,1.457-1.166
							c0.315,1.54-2.545,3.379-3.72,3.964c-1.62,0.806-3.283,1.518-4.944,2.12c-1.545,0.562-3.232,0.988-4.867,1.395
							c-0.991,0.247-3.228,0.884-3.738,1.857c0.63,0.156,1.263-0.129,1.918-0.412c0.618-0.269,1.253-0.537,1.917-0.435
							c0.078,1.156-0.717,1.509-0.786,2.467c-0.083,1.179,1.265,0.2,2.005-0.275c0.666-0.425,1.604-1.309,2.411-1.463
							c1.069-0.201,0.671,0.626,0.789,1.429c0.554-2.024,2.521-1.332,3.98-1.837c1.044-0.355,2.455-1.341,3.605-1.204
							c0.071,1.644-0.586,2.97-1.721,4.09c-0.812,0.8-2.435,1.262-3.098,2.157c0.592,0.041,1.069-0.254,1.557-0.548
							c0.541-0.327,1.095-0.656,1.835-0.522c0.072,1.268-1.831,2.867-2.874,3.378c-1.396,0.681-2.939,1.365-4.47,1.931
							c-1.371,0.506-2.689,1.109-3.965,1.746c-1.193,0.598-3.302,1.216-4.119,2.3c0.564,0.549,2.898-0.95,3.646-1.202
							c0.816-0.281,1.238-0.636,1.436,0.296c0.133,0.63-0.308,1.204-0.665,1.643c1.545-0.7,3.562-0.829,4.944-1.604
							c-0.366,0.833-1.39,1.569-1.74,2.379c1.03-0.731,2.407-0.984,3.526-1.531c-0.012,0.979-0.146,1.274,1.201,1.024
							c0.873-0.164,1.782-0.306,2.653-0.448c1.621-0.266,3.1-0.629,4.829-0.539c-0.32,1.834-3.551,3.569-5.055,4.304
							c-1.104,0.543-5.04,1.232-5.273,2.387c0.32,0.016,0.602-0.066,0.881-0.149c0.272-0.082,0.545-0.164,0.855-0.152
							c0.036,0.19,0.042,0.438-0.004,0.629c-0.817,0.643-1.095,1.279-2.184,1.78c-0.775,0.355-1.73,0.719-2.532,0.997
							c-1.759,0.611-2.907,1.647-4.683,2.461c-0.751,0.346-3.13,0.921-3.127,1.925c1.238,0.056,2.793-1.164,3.949-1.527
							c2.479-0.782,0.547,1.381,0.013,2.519c1.343-0.136,2.285-0.693,3.584-1.049c0.596,2.229-2.865,4.599-4.458,5.385
							c-1.07,0.534-4.658,1.924-4.853,3.043c1.296,0.198,2.554-0.545,3.807-1.289c1.248-0.741,2.491-1.482,3.763-1.293
							c0.282,1.676-1.285,2.262-2.257,3.374c0.906,0.038,2.049-0.937,2.835-1.345c0.761-0.394,1.564-0.845,2.39-1.183
							c0.04,1.121-0.949,1.927-1.06,2.949c1.144-0.198,2.345-1.915,3.537-2.515c1.401-0.707,3.235-2.079,4.911-1.857
							c0.349,1.86-3.374,3.771-4.637,4.586c-1.298,0.842-3.79,1.661-4.144,3.182c0.856-0.324,2.213-1.189,2.963-1.802
							c-0.042,1.03-0.854,2.157-1.393,2.927c1.042-1.037,3.547-2.836,4.896-3.056c0.167,1.427-1.631,2.704-1.845,4.034
							c0.538-0.56,1.303-1.286,1.884-1.708c0.245-0.18,0.667-0.623,0.963-0.583c0.612,0.078,0.223,0.473,0.583,0.664
							c1.266,0.664,0.98-0.459,1.939-1.107c1.192-0.802,0.962,0.349,1.033,1.321c1.184-0.831,1.176-4.472,3.374-4.023
							c0.176,0.69,0.102,1.476,0.438,2.041c-0.064-0.779,1.102-1.624,1.645-2.11c0.811-0.729,0.958-0.611,1.883-0.178
							c-0.016,0.148,0.053,0.142,0.13,0.201l0.771,1.214c1.436,2.216,2.647,4.313,5.377,5.284c0.444-0.951-0.42-1.854-0.619-2.754
							c-0.184-0.815-0.331-1.892-0.233-2.733c1.556-0.071,2.487,1.945,3.828,2.167c0.695-1.388-0.398-2.423-0.293-3.712
							c1.044,0.003,2.386,1.499,3.256,2.109c1.024,0.712,2.021,1.545,3.205,2.051c0.083-1-0.047-1.922-0.52-2.722
							c1.632-0.23,3.667,1.445,5.267,1.725c-0.967-2.931-5.22-3.715-6.147-6.688c0.764-0.047,1.513,0.134,2.251,0.314
							c0.762,0.188,1.509,0.375,2.244,0.31c-0.535-0.647-0.941-1.323-1.189-2.134c0.916-0.279,2.568,0.807,3.093,1.365
							c0.671,0.234,2.781,0.645,2.417-0.555c-0.284-0.944-2.684-1.941-3.464-2.484c-1.631-1.142-4.777-1.878-5.664-3.751
							c1.208-0.083,2.31,0.166,3.4,0.413c0.969,0.221,1.927,0.441,2.942,0.429c-0.031-0.73-0.926-1.547-0.23-2.101
							c0.493-0.394,1.811,0.04,2.14,0.337c2.01,0.114,4.021,0.19,6.025,0.417c0.519-1.759-2.773-2.346-3.528-3.134
							c-1.413-0.37-2.805-0.902-4.275-0.901c-1.594,0.005-3.234,0.111-4.852,0.111c-3.397,0-5.843-1.05-8.498-2.861
							c0.684-0.298,1.741-0.145,2.816,0.006c1.376,0.196,2.781,0.391,3.463-0.359c-0.05-0.204,0.058-0.514,0.027-0.732
							c1.67-0.484,3.312,0.651,4.837,0.974c0.57,0.118,1.846,0.633,2.431,0.334c0.892-0.455,0.313-1.3,0.233-1.97
							c1.127,0.063,2.259,0.804,3.388,0.619c-0.947-1.355-3.328-2.179-4.837-2.978c-1.72-0.907-3.519-1.605-5.284-2.608
							c-1.601-0.908-3.067-1.879-4.546-2.84c-1.047-0.676-3.047-1.733-3.047-3.101c1.559-0.08,3.617,0.12,4.738,1.063
							c0.243,0.104,0.323,0.066,0.525,0.211c-0.511-0.587-0.792-1.189-0.854-1.939c0.759-0.044,1.551,0.205,2.295,0.488
							c-1.639-0.78-3.336-2.479-4.661-3.471c-1.007-0.751-2.376-1.741-3.179-2.762c1.066-0.408,3.914,0.96,4.846,1.618
							c-0.171-1.029-1.321-1.788-1.285-2.924c1.043-0.198,2.367,0.5,3.271,0.854c0.037-0.517-0.163-0.903-0.193-1.405
							c1.099-0.209,2.328,0.669,3.293,1.089c1.025,0.45,2.202,0.725,3.191,1.17c-0.92-1.296-2.489-1.994-3.419-3.267
							c0.566-0.586,1.54-0.113,2.49,0.36c0.714,0.355,1.413,0.712,1.911,0.613c-0.06-1.633-3.005-2.322-4.254-2.873
							c-1.771-0.781-3.472-1.599-5.097-2.616c-1.517-0.949-3.095-1.934-4.59-2.759c-0.841-0.463-5.125-2.273-3.873-3.386
							c1.417-1.26,4.572,0.515,5.731,1.209c-0.313-0.931-0.915-1.851-1.215-2.757c1.033-0.099,2.304,0.891,3.189,1.432
							c-0.056-0.331-0.16-0.815-0.102-1.213c1.028-0.064,1.901,0.705,2.826,0.954c0.394-1.275,1.973,0.273,2.737,0.36
							c-0.314-0.544-0.638-0.872-0.723-1.506c0.613-0.141,1.304-0.044,1.998,0.055c0.462,0.065,0.927,0.131,1.368,0.124
							c-1.509-1.384-14.337-3.258-12.282-6.707c1.511-0.058,2.78,0.802,4.14,1.188c-0.628-0.938-1.209-1.87-1.694-2.868
							c0.392-0.151,0.898-0.136,1.266,0.106c0.05-0.577-0.162-1.044-0.076-1.625c0.619-0.086,1.483,0.199,2.053,0.405
							c0.344-0.665-0.09-1.248-0.106-1.945c-2.197-1.135-4.669-1.893-6.707-3.211c-1.695-1.099-2.479-3.532-2.623-5.495
							c0.877,0.077,1.589,1.05,2.502,0.958c-0.011-0.408,0.023-0.812,0.133-1.18c0.915-0.123,1.874,0.675,2.621,0.849
							c-1.249-0.805-2.571-1.562-3.418-2.718c-0.643-0.198-1.452-1.04-1.996-1.533c-0.925-0.842-0.601-1.268-0.393-2.326
							c0.537-0.041,0.759,0.121,1.229,0.385c0.425-1.044-1.441-2.766-2.021-3.789c-0.617-1.088-0.598-2.604-1.133-3.645
							c-0.107-0.215-0.24-0.404-0.407-0.569c-0.01-0.011-0.021-0.015-0.036-0.015C596.853,410.437,596.005,411.331,596.005,411.331"
							/>
					</defs>
					<clipPath id="SVGID_59_">
						<use xlink:href="#SVGID_58_"  overflow="visible"/>
					</clipPath>
					
						<linearGradient id="SVGID_60_" gradientUnits="userSpaceOnUse" x1="956.166" y1="473.7866" x2="956.7742" y2="473.7866" gradientTransform="matrix(91.3307 0 0 91.3307 -86756.125 -42814.668)">
						<stop  offset="0" style="stop-color:#00AD1C"/>
						<stop  offset="1" style="stop-color:#00851E"/>
					</linearGradient>
					<rect x="571.23" y="410.437" clip-path="url(#SVGID_59_)" fill="url(#SVGID_60_)" width="56.017" height="92.448"/>
				</g>
			</g>
			<g>
				<g>
					<defs>
						<polygon id="SVGID_61_" points="597.298,515.718 599.769,515.718 596.831,410.944 						"/>
					</defs>
					<clipPath id="SVGID_62_">
						<use xlink:href="#SVGID_61_"  overflow="visible"/>
					</clipPath>
					
						<linearGradient id="SVGID_63_" gradientUnits="userSpaceOnUse" x1="954.4692" y1="467.2612" x2="955.0776" y2="467.2612" gradientTransform="matrix(0 -122.2916 122.2916 0 -56543.8203 117248.25)">
						<stop  offset="0" style="stop-color:#7C6E26"/>
						<stop  offset="1" style="stop-color:#1E1800"/>
					</linearGradient>
					<rect x="596.831" y="410.944" clip-path="url(#SVGID_62_)" fill="url(#SVGID_63_)" width="2.938" height="104.774"/>
				</g>
			</g>
			<g>
				<g>
					<defs>
						<path id="SVGID_64_" d="M595.674,435.429l-0.183,0.141c-0.258,0.066-0.466,0.268-0.712,0.369
							c-0.331,0.143-0.668,0.243-1.015,0.352c-0.647,0.2-1.31,0.443-1.953,0.709c-0.415,0.174-0.754,0.405-1.18,0.55
							c-0.395,0.135-0.746,0.517-1.153,0.609c-0.139,0.115-0.759,0.323-0.732,0.563c0.26,0.04,0.53-0.073,0.8-0.188
							c0.291-0.121,0.582-0.244,0.861-0.173c0.063,0.289-0.344,0.349-0.47,0.523c0.115,0.11,0.252,0.058,0.375,0.008
							c0.105-0.045,0.357-0.217,0.285,0c-0.062,0.183-0.54,0.401-0.695,0.502c-0.203,0.131-0.412,0.278-0.631,0.429
							c-0.203,0.139-0.508,0.26-0.465,0.544c0.147,0.005,0.287-0.077,0.426-0.117c0.142-0.041,0.326-0.065,0.466-0.124
							c0.079,0.18-0.373,0.444-0.485,0.567c0.264,0.085,0.568-0.028,0.75-0.204c0.09,0.182-0.457,0.591-0.596,0.688
							c-0.29,0.207-0.555,0.395-0.874,0.571c-0.125,0.067-0.825,0.515-0.419,0.575c0.153,0.023,0.43-0.155,0.568-0.224
							c0.162-0.079,0.325-0.16,0.482-0.248c0.241-0.123,0.476-0.215,0.738-0.284c0.106,0.187-0.167,0.409-0.278,0.532
							c0.209,0.095,0.541-0.137,0.704-0.248c0.191-0.123,0.416-0.203,0.632-0.283c0.19-0.069,0.466-0.204,0.69-0.203
							c0.387,0.01,0.069,0.253-0.017,0.424c0.292-0.274,0.672-0.383,1.01-0.552c0.333-0.16,0.663-0.34,1.014-0.416
							c0.056,0.346-0.311,0.395-0.383,0.666c0.142,0.125,0.284-0.109,0.389-0.184c0.134-0.096,0.291-0.127,0.437-0.198
							c0.264-0.143,0.517-0.305,0.763-0.471c0.202-0.143,0.416-0.375,0.651-0.482c0.378-0.181,0.013,0.554-0.041,0.721
							c0.531-0.521,1.109-0.891,1.752-1.251c0.288-0.163,0.629-0.385,0.87-0.613c0.222-0.212,0.482-0.355,0.684-0.593
							c0.303-0.363,0.233-0.635,0.186-1.075c-0.058-0.524-0.324-0.741-0.592-1.132c-0.18-0.086-0.363-0.25-0.563-0.354
							c-0.177-0.093-0.382-0.178-0.586-0.243c-0.289-0.098-0.763-0.242-1.15-0.242C595.9,435.369,595.776,435.386,595.674,435.429"
							/>
					</defs>
					<clipPath id="SVGID_65_">
						<use xlink:href="#SVGID_64_"  overflow="visible"/>
					</clipPath>
					
						<linearGradient id="SVGID_66_" gradientUnits="userSpaceOnUse" x1="920.8203" y1="463.8804" x2="921.4288" y2="463.8804" gradientTransform="matrix(2.9646 -13.1553 13.1553 2.9646 -8239.6699 11180.3184)">
						<stop  offset="0" style="stop-color:#00BB21"/>
						<stop  offset="1" style="stop-color:#009123"/>
					</linearGradient>
					<polygon clip-path="url(#SVGID_65_)" fill="url(#SVGID_66_)" points="586.17,442.009 588.217,432.929 600.538,435.706 
						598.493,444.787 					"/>
				</g>
			</g>
			<g>
				<g>
					<defs>
						<path id="SVGID_67_" d="M601.489,473.885c-0.121-0.075-0.263-0.189-0.416-0.312
							C601.184,473.729,601.316,473.843,601.489,473.885"/>
					</defs>
					<clipPath id="SVGID_68_">
						<use xlink:href="#SVGID_67_"  overflow="visible"/>
					</clipPath>
					
						<linearGradient id="SVGID_69_" gradientUnits="userSpaceOnUse" x1="951.6396" y1="463.728" x2="952.2484" y2="463.728" gradientTransform="matrix(-16.7357 -57.4825 57.4825 -16.7357 -10124.2217 62952.207)">
						<stop  offset="0" style="stop-color:#00BB21"/>
						<stop  offset="1" style="stop-color:#009123"/>
					</linearGradient>
					<polygon clip-path="url(#SVGID_68_)" fill="url(#SVGID_69_)" points="601.107,473.998 600.991,473.599 601.456,473.462 
						601.573,473.862 					"/>
				</g>
			</g>
			<g>
				<g>
					<defs>
						<path id="SVGID_70_" d="M599.89,468.337c-0.611,0.113-1.279-0.513-1.814-0.665l0.075,0.456
							c-0.496-0.359-0.941-1.337-1.583-1.358c-0.241,1.339,0.396,2.131,0.834,3.321c0.045,0.007,0.087,0.013,0.127,0.024
							c0.263,0.997,0.718,2.961,1.903,3.164c0.045-0.294-0.043-0.568-0.208-0.808c0.574-0.004,1.289,0.647,1.85,1.102
							c-0.285-0.41-0.375-1.102-0.461-1.5c2.077-0.045,3.081,3.02,4.896,3.567c-0.119-0.54-0.529-1.212-0.815-1.725
							c0.761-0.047,1.981,1.102,2.488,1.499c-0.1-0.38-0.361-0.667-0.283-1.123c0.845-0.064,1.813,0.947,2.573,1.26
							c-0.121-0.532-0.436-1.049-0.409-1.585c1.132,0.43,2.053,1.276,3.128,1.695c0.779,0.304,2.049,0.313,2.758,0.761
							c0.066-0.957-1.973-2.346-2.667-2.901c-0.957-0.769-1.976-1.346-3.02-1.916c-2.427-1.33-5.008-2.379-7.16-4.014
							c-1.038-0.78-2.128-0.864-3.254-1.474C598.674,467.068,599.443,467.702,599.89,468.337"/>
					</defs>
					<clipPath id="SVGID_71_">
						<use xlink:href="#SVGID_70_"  overflow="visible"/>
					</clipPath>
					
						<linearGradient id="SVGID_72_" gradientUnits="userSpaceOnUse" x1="951.6133" y1="463.6577" x2="952.221" y2="463.6577" gradientTransform="matrix(-16.6658 -57.2423 57.2423 -16.6658 -10071.1045 62687.0664)">
						<stop  offset="0" style="stop-color:#00BB21"/>
						<stop  offset="1" style="stop-color:#009123"/>
					</linearGradient>
					<polygon clip-path="url(#SVGID_71_)" fill="url(#SVGID_72_)" points="597.788,481.441 593.561,466.923 613.555,461.102 
						617.781,475.621 					"/>
				</g>
			</g>
			<g>
				<g>
					<defs>
						<path id="SVGID_73_" d="M598.479,433.923c-0.068-0.049-0.151-0.112-0.237-0.186
							C598.304,433.828,598.38,433.895,598.479,433.923"/>
					</defs>
					<clipPath id="SVGID_74_">
						<use xlink:href="#SVGID_73_"  overflow="visible"/>
					</clipPath>
					
						<linearGradient id="SVGID_75_" gradientUnits="userSpaceOnUse" x1="946.3486" y1="460.0435" x2="946.9736" y2="460.0435" gradientTransform="matrix(-9.7905 -33.6276 33.6276 -9.7905 -5603.9404 36770.3359)">
						<stop  offset="0" style="stop-color:#00BB21"/>
						<stop  offset="1" style="stop-color:#009123"/>
					</linearGradient>
					<polygon clip-path="url(#SVGID_74_)" fill="url(#SVGID_75_)" points="598.261,433.988 598.194,433.752 598.462,433.675 
						598.53,433.908 					"/>
				</g>
			</g>
			<g>
				<g>
					<defs>
						<path id="SVGID_76_" d="M597.559,430.712c-0.356,0.065-0.744-0.296-1.05-0.385l0.042,0.265
							c-0.289-0.208-0.547-0.77-0.917-0.786c-0.139,0.774,0.229,1.232,0.485,1.921c0.026,0.003,0.049,0.01,0.071,0.014
							c0.153,0.577,0.416,1.714,1.101,1.832c0.029-0.172-0.024-0.333-0.119-0.469c0.334,0,0.746,0.372,1.07,0.634
							c-0.167-0.234-0.218-0.634-0.269-0.865c1.204-0.023,1.784,1.75,2.833,2.063c-0.067-0.312-0.306-0.703-0.471-0.999
							c0.439-0.026,1.144,0.637,1.436,0.87c-0.055-0.223-0.206-0.387-0.161-0.65c0.489-0.039,1.047,0.544,1.487,0.728
							c-0.07-0.307-0.25-0.605-0.237-0.917c0.654,0.25,1.187,0.736,1.807,0.98c0.452,0.177,1.186,0.179,1.597,0.441
							c0.041-0.556-1.14-1.359-1.54-1.682c-0.557-0.44-1.142-0.776-1.747-1.104c-1.406-0.771-2.896-1.379-4.142-2.32
							c-0.598-0.453-1.23-0.503-1.884-0.855C596.854,429.978,597.298,430.344,597.559,430.712"/>
					</defs>
					<clipPath id="SVGID_77_">
						<use xlink:href="#SVGID_76_"  overflow="visible"/>
					</clipPath>
					
						<linearGradient id="SVGID_78_" gradientUnits="userSpaceOnUse" x1="946.1675" y1="459.855" x2="946.7752" y2="459.855" gradientTransform="matrix(-9.6359 -33.0967 33.0967 -9.6359 -5498.9395 36187.8203)">
						<stop  offset="0" style="stop-color:#00BB21"/>
						<stop  offset="1" style="stop-color:#009123"/>
					</linearGradient>
					<polygon clip-path="url(#SVGID_77_)" fill="url(#SVGID_78_)" points="596.341,438.29 593.897,429.895 605.459,426.528 
						607.903,434.923 					"/>
				</g>
			</g>
			<g>
				<g>
					<defs>
						<path id="SVGID_79_" d="M597.012,458.526c-0.379,0.264-0.767,0.447-1.143,0.701c-0.696,0.469-1.459,0.886-2.041,1.442
							c-0.489,0.472-1.025,0.966-1.506,1.508c-0.278,0.314-0.5,0.551,0.013,0.689c0.402,0.107,0.723-0.229,1.083-0.257
							c0.192,1.21-1.521,1.864-2.277,2.38c-0.911,0.619-2.033,0.902-2.8,1.765c0.587,0.209,1.336-0.079,1.854-0.349
							c0.208,0.754-1.656,1.565-2.219,1.805c-0.941,0.393-1.877,0.882-2.856,1.162c0.002,0.021,0.002,0.119,0,0.14
							c0.441,0.069,0.758,0.321,1.24,0.268c0.403-0.041,0.781-0.265,1.185-0.309c0.2,0.426-0.134,0.657-0.189,1.029
							c1.087-0.417,2.293-0.706,3.459-0.975c0.237,0.202,0.181,0.597,0.283,0.875c0.646-0.221,1.079-0.782,1.712-1.078
							c0.272-0.126,0.213-0.354,0.451,0c0.099,0.146,0.09,0.414,0.02,0.608c0.328-0.546,1.58-1.068,2.059-1.409
							c0.735-0.521,1.636-0.954,2.182-1.61c0.588-0.706,0.836-1.436,0.844-2.379c0.013-1.088,0.181-1.862,0.661-2.823
							c0.321-0.641,1.08-1.956,0.808-2.701c-0.209-0.572-1.419-1.435-1.986-1.185l0.207-0.207
							C597.69,457.863,597.385,458.268,597.012,458.526"/>
					</defs>
					<clipPath id="SVGID_80_">
						<use xlink:href="#SVGID_79_"  overflow="visible"/>
					</clipPath>
					
						<linearGradient id="SVGID_81_" gradientUnits="userSpaceOnUse" x1="945.1421" y1="467.8726" x2="945.7504" y2="467.8726" gradientTransform="matrix(11.0239 -36.1481 36.1481 11.0239 -26742.6211 29482.4355)">
						<stop  offset="0" style="stop-color:#00BB21"/>
						<stop  offset="1" style="stop-color:#009123"/>
					</linearGradient>
					<polygon clip-path="url(#SVGID_80_)" fill="url(#SVGID_81_)" points="581.512,469.401 586.394,453.392 603.713,458.673 
						598.831,474.683 					"/>
				</g>
			</g>
			<g>
				<g>
					<defs>
						<path id="SVGID_82_" d="M595.778,451.665h0.531c-0.497,0.087-1.013,0.518-1.5,0.7c-0.551,0.21-1.133,0.394-1.683,0.615
							c-0.559,0.225-1.052,0.604-1.593,0.878c-0.364,0.187-1.134,0.512-1.218,0.951c0.441,0.24,0.586,0.258,0.935-0.046
							c0.29-0.258,0.516-0.394,0.891-0.441c0.03,0.423-1.373,1.394-1.742,1.678c0.192,0.279,0.604,0.082,0.998-0.116
							c0.264-0.134,0.52-0.266,0.693-0.254c0.056,0.493-0.389,0.923-0.628,1.292c0.208-0.043,0.449-0.188,0.643-0.279
							c0.579-0.268,1.131-0.488,1.743-0.658c0.262-0.071,0.547-0.353,0.669-0.046c0.09,0.225-0.215,0.558-0.191,0.785
							c0.322-0.137,1.138-0.364,1.254-0.729c0.187,0.069,0.245,0.5,0.477,0.437c0.132-0.037,0.24-0.538,0.293-0.624
							c0.341-0.528,0.72-0.31,0.824,0.257c0.334,0.015,0.594-0.019,0.901-0.146c0.412-0.177,0.387-0.161,0.678,0.209
							c-0.191-0.327,0.503-1.47,0.733-1.696c-0.006-0.253,0.17-0.445,0.221-0.686c0.057-0.298-0.011-0.491-0.085-0.775
							c-0.127-0.494-0.255-0.927-0.867-0.896c-0.222,0.007-0.5,0.181-0.734,0.153c-0.311-0.037-0.33-0.229-0.567-0.391
							c-0.26-0.172-0.671-0.252-1.057-0.252C596.169,451.584,595.95,451.613,595.778,451.665"/>
					</defs>
					<clipPath id="SVGID_83_">
						<use xlink:href="#SVGID_82_"  overflow="visible"/>
					</clipPath>
					
						<linearGradient id="SVGID_84_" gradientUnits="userSpaceOnUse" x1="922.2808" y1="488.3325" x2="922.8888" y2="488.3325" gradientTransform="matrix(9.2394 -7.9304 7.9304 9.2394 -11801.1299 3258.2827)">
						<stop  offset="0" style="stop-color:#00BB21"/>
						<stop  offset="1" style="stop-color:#009123"/>
					</linearGradient>
					<polygon clip-path="url(#SVGID_83_)" fill="url(#SVGID_84_)" points="587.676,453.849 595.754,446.915 602.4,454.66 
						594.322,461.591 					"/>
				</g>
			</g>
			<g>
				<g>
					<defs>
						<path id="SVGID_85_" d="M602.087,456.53c-0.125-0.567-0.557-1.273-0.855-1.811c0.798-0.05,2.08,1.158,2.613,1.577
							c-0.101-0.402-0.38-0.701-0.296-1.182c0.886-0.067,1.902,0.992,2.702,1.322c-0.123-0.558-0.452-1.102-0.427-1.664
							c1.19,0.451,2.158,1.339,3.286,1.783c0.821,0.319,2.154,0.325,2.895,0.797c0.073-1.003-2.069-2.466-2.798-3.049
							c-1.007-0.81-2.072-1.413-3.174-2.013c-2.554-1.396-5.259-2.503-7.525-4.217c-1.089-0.825-2.234-0.909-3.42-1.551
							C594.907,447.523,600.179,455.958,602.087,456.53"/>
					</defs>
					<clipPath id="SVGID_86_">
						<use xlink:href="#SVGID_85_"  overflow="visible"/>
					</clipPath>
					
						<linearGradient id="SVGID_87_" gradientUnits="userSpaceOnUse" x1="951.7871" y1="463.8589" x2="952.3954" y2="463.8589" gradientTransform="matrix(-17.4972 -60.0979 60.0979 -17.4972 -10613.1904 65791.3516)">
						<stop  offset="0" style="stop-color:#00BB21"/>
						<stop  offset="1" style="stop-color:#009123"/>
					</linearGradient>
					<polygon clip-path="url(#SVGID_86_)" fill="url(#SVGID_87_)" points="596.248,461.962 592,447.37 610.736,441.916 
						614.985,456.507 					"/>
				</g>
			</g>
			<g>
				<g>
					<defs>
						<path id="SVGID_88_" d="M587.418,490.332c0.21-0.176,0.457-0.431,0.66-0.688C587.836,489.86,587.614,490.086,587.418,490.332"
							/>
					</defs>
					<clipPath id="SVGID_89_">
						<use xlink:href="#SVGID_88_"  overflow="visible"/>
					</clipPath>
					
						<linearGradient id="SVGID_90_" gradientUnits="userSpaceOnUse" x1="950.4556" y1="481.0601" x2="951.0758" y2="481.0601" gradientTransform="matrix(32.1519 -5.9944 5.9944 32.1519 -32861.6641 -9278.3594)">
						<stop  offset="0" style="stop-color:#00BB21"/>
						<stop  offset="1" style="stop-color:#009123"/>
					</linearGradient>
					<polygon clip-path="url(#SVGID_89_)" fill="url(#SVGID_90_)" points="587.293,489.667 588.056,489.524 588.202,490.308 
						587.44,490.45 					"/>
				</g>
			</g>
			<g>
				<g>
					<defs>
						<path id="SVGID_91_" d="M594.396,476.953c-0.964,0.615-2.87,0.308-3.554,1.319l-0.085,0.087
							c-0.655-0.345-2.218,0.755-2.828,1.074c-0.809,0.417-1.673,0.896-2.536,1.172c0.729,0.575,1.87,0.055,2.486,0.559
							c-1.188,1.358-3.155,1.699-4.566,2.731c0.581,0.667,1.665,0.198,2.391,0.177c0.202,0.888-1.096,2.027-1.468,2.78
							c0.701,0.061,1.571-0.532,2.227-0.81c0.566-0.242,1.285-0.554,0.929,0.417c-0.209,0.577-1.172,1.065-1.609,1.466
							c-0.386,0.353-0.753,0.774-1.078,1.236c-0.385,0.557-0.509,1.088,0.244,0.339c0.18-0.182,1.292-0.868,1.706-1.158
							c0.421-0.295,1.024-0.621,1.607-0.584c0.838,0.058,0.313,1.188-0.042,1.699c-0.045,0.063-0.093,0.124-0.143,0.186
							c0.632-0.571,1.387-1.025,2.168-1.204c1.849-0.422,0.208,1.833,0.111,2.63c0.78-0.024,1.174-1.086,1.891-1.207
							c1.142-0.196,0.292,1.417,0.256,2.04c2.706-0.694,2.872-4.878,3.526-7.031c0.686-2.271,1.05-5.355,0.744-7.853
							c-0.077-0.612-0.352-0.822-0.703-0.822C595.55,476.193,594.861,476.656,594.396,476.953"/>
					</defs>
					<clipPath id="SVGID_92_">
						<use xlink:href="#SVGID_91_"  overflow="visible"/>
					</clipPath>
					
						<linearGradient id="SVGID_93_" gradientUnits="userSpaceOnUse" x1="950.4395" y1="481.1646" x2="951.0475" y2="481.1646" gradientTransform="matrix(32.0641 -5.978 5.978 32.0641 -32771.2461 -9260.4609)">
						<stop  offset="0" style="stop-color:#00BB21"/>
						<stop  offset="1" style="stop-color:#009123"/>
					</linearGradient>
					<polygon clip-path="url(#SVGID_92_)" fill="url(#SVGID_93_)" points="580.485,476.721 596.617,473.715 599.908,491.373 
						583.776,494.379 					"/>
				</g>
			</g>
			<g>
				<g>
					<defs>
						<path id="SVGID_94_" d="M599.926,489.452c-0.13-0.087-0.284-0.206-0.447-0.337
							C599.596,489.283,599.742,489.409,599.926,489.452"/>
					</defs>
					<clipPath id="SVGID_95_">
						<use xlink:href="#SVGID_94_"  overflow="visible"/>
					</clipPath>
					
						<linearGradient id="SVGID_96_" gradientUnits="userSpaceOnUse" x1="952.271" y1="464.1538" x2="952.8543" y2="464.1538" gradientTransform="matrix(-18.0708 -62.0683 62.0683 -18.0708 -10996.7158 67998.2422)">
						<stop  offset="0" style="stop-color:#00BB21"/>
						<stop  offset="1" style="stop-color:#009123"/>
					</linearGradient>
					<polygon clip-path="url(#SVGID_95_)" fill="url(#SVGID_96_)" points="599.514,489.573 599.388,489.141 599.891,488.996 
						600.018,489.427 					"/>
				</g>
			</g>
			<g>
				<g>
					<defs>
						<path id="SVGID_97_" d="M598.196,483.433c-0.664,0.122-1.392-0.558-1.971-0.725l0.083,0.497
							c-0.543-0.392-1.025-1.448-1.722-1.475c-0.259,1.453,0.429,2.311,0.909,3.603c0.047,0.01,0.093,0.019,0.138,0.028
							c0.286,1.08,0.775,3.213,2.062,3.436c0.05-0.321-0.041-0.622-0.228-0.877c0.627-0.003,1.403,0.7,2.011,1.194
							c-0.309-0.444-0.407-1.194-0.502-1.631c2.259-0.049,3.348,3.283,5.311,3.875c-0.125-0.59-0.57-1.322-0.88-1.874
							c0.825-0.051,2.147,1.196,2.698,1.626c-0.109-0.408-0.393-0.718-0.307-1.216c0.916-0.072,1.967,1.027,2.793,1.365
							c-0.13-0.574-0.475-1.138-0.445-1.723c1.228,0.469,2.229,1.386,3.394,1.842c0.847,0.331,2.223,0.34,2.993,0.826
							c0.073-1.039-2.139-2.548-2.892-3.15c-1.039-0.831-2.144-1.457-3.279-2.078c-2.638-1.439-5.43-2.582-7.773-4.354
							c-1.123-0.848-2.308-0.938-3.53-1.602C596.875,482.055,597.709,482.741,598.196,483.433"/>
					</defs>
					<clipPath id="SVGID_98_">
						<use xlink:href="#SVGID_97_"  overflow="visible"/>
					</clipPath>
					
						<linearGradient id="SVGID_99_" gradientUnits="userSpaceOnUse" x1="952.2637" y1="464.1089" x2="952.8726" y2="464.1089" gradientTransform="matrix(-18.0827 -62.1093 62.1093 -18.0827 -10996.3877 68040.7266)">
						<stop  offset="0" style="stop-color:#00BB21"/>
						<stop  offset="1" style="stop-color:#009123"/>
					</linearGradient>
					<polygon clip-path="url(#SVGID_98_)" fill="url(#SVGID_99_)" points="595.912,497.649 591.326,481.895 613.022,475.58 
						617.609,491.332 					"/>
				</g>
			</g>
			<g>
				<g>
					<defs>
						<rect id="SVGID_100_" x="571.23" y="410.437" width="81.115" height="112.361"/>
					</defs>
					<clipPath id="SVGID_101_">
						<use xlink:href="#SVGID_100_"  overflow="visible"/>
					</clipPath>
					<g clip-path="url(#SVGID_101_)">
						<g>
							<g opacity="0.3">
								<defs>
									<rect id="SVGID_102_" x="586.377" y="410.808" opacity="0.3" width="25.114" height="92.038"/>
								</defs>
								<clipPath id="SVGID_103_">
									<use xlink:href="#SVGID_102_"  overflow="visible"/>
								</clipPath>
								<g clip-path="url(#SVGID_103_)">
									<g>
										<defs>
											<path id="SVGID_104_" d="M597.032,410.821c0.076,0.164,0.137,0.354,0.188,0.565c0.259,1.038,0.273,2.548,0.566,3.629
												c0.273,1.018,1.146,2.733,0.968,3.773c-0.218-0.265-0.32-0.427-0.563-0.382c-0.082,1.053-0.223,1.475,0.208,2.313
												c0.252,0.491,0.632,1.332,0.925,1.525c0.401,1.15,1.011,1.905,1.593,2.699c-0.344-0.168-0.791-0.961-1.203-0.837
												c-0.046,0.362-0.057,0.765-0.046,1.172c-0.414,0.092-0.752-0.877-1.152-0.951c0.095,1.957,0.478,4.374,1.266,5.472
												c0.943,1.307,2.076,2.059,3.09,3.191c0.018,0.692,0.223,1.274,0.074,1.939c-0.262-0.207-0.658-0.491-0.937-0.405
												c-0.03,0.579,0.067,1.044,0.057,1.616c-0.171-0.238-0.403-0.253-0.578-0.105c0.234,0.996,0.509,1.923,0.805,2.855
												c-0.623-0.385-1.209-1.239-1.894-1.18c-0.889,3.433,4.963,5.294,5.669,6.669c-0.499,0.021-1.069-0.408-1.53-0.177
												c0.047,0.635,0.197,0.962,0.345,1.503c-0.345-0.089-1.084-1.631-1.249-0.356c-0.423-0.251-0.83-1.012-1.296-0.954
												c-0.021,0.398,0.031,0.883,0.06,1.21c-0.409-0.537-1-1.521-1.466-1.422c0.147,0.899,0.435,1.816,0.586,2.743
												c-0.538-0.688-1.992-2.455-2.618-1.201c-0.556,1.111,1.414,2.911,1.803,3.372c0.69,0.818,1.423,1.797,2.127,2.742
												c0.749,1.012,1.531,1.822,2.345,2.603c0.578,0.544,1.927,1.233,1.976,2.858c-0.523,0.225-1.576-1.992-2.016-0.965
												c0.441,1.264,1.163,1.957,1.6,3.247c-0.456-0.443-0.996-0.716-1.469-1.164c-0.445-0.421-1.012-1.289-1.511-1.079
												c0.021,0.496,0.117,0.886,0.107,1.397c-0.417-0.354-1.027-1.05-1.497-0.849c-0.002,1.128,0.531,1.886,0.621,2.911
												c-0.432-0.654-1.742-2.019-2.224-1.611c0.378,1.019,1.015,2,1.48,2.75c0.709,1.13,1.647,3.186,2.496,3.731
												c-0.429-0.364-0.921-0.823-1.377-0.763c0.037,0.744,0.171,1.345,0.412,1.929c-0.096-0.146-0.128-0.105-0.24-0.207
												c-0.52-0.941-1.461-1.14-2.17-1.059c0.015,1.361,0.942,2.412,1.427,3.084c0.684,0.956,1.368,1.924,2.103,2.824
												c0.818,1.001,1.641,1.689,2.436,2.596c0.695,0.793,1.791,1.612,2.238,2.961c-0.511,0.183-1.038-0.553-1.55-0.617
												c0.049,0.673,0.323,1.513-0.079,1.965c-0.259,0.3-0.848-0.214-1.107-0.334c-0.698-0.313-1.458-1.445-2.212-0.964
												c0.016,0.217-0.026,0.521-0.004,0.729c-0.533,1.334-2.15-0.322-2.85,0.351c1.232,1.808,2.357,2.853,3.902,2.846
												c0.733,0,1.478-0.105,2.202-0.11c0.668-0.003,1.311,0.525,1.956,0.894c0.353,0.782,1.858,1.365,1.644,3.118
												c-0.912-0.223-1.827-0.3-2.74-0.41c-0.157-0.291-0.76-0.728-0.98-0.335c-0.31,0.55,0.109,1.366,0.132,2.094
												c-0.979,0.022-1.859-0.994-2.895-0.836c0.432,1.863,1.869,2.595,2.624,3.73c0.361,0.542,1.469,1.532,1.607,2.473
												c0.182,1.194-0.785,0.783-1.09,0.554c-0.247-0.557-1.013-1.635-1.424-1.363c0.118,0.81,0.319,1.481,0.567,2.126
												c-0.653,0.133-1.344-0.717-2.05-0.616c0.46,2.962,2.404,3.737,2.881,6.655c-0.73-0.276-1.678-1.944-2.416-1.712
												c0.224,0.795,0.296,1.712,0.27,2.707c-0.544-0.503-1.008-1.33-1.484-2.039c-0.402-0.606-1.031-2.096-1.506-2.096
												c-0.032,1.28,0.477,2.31,0.18,3.689c-0.61-0.214-1.061-2.223-1.768-2.154c-0.032,0.84,0.047,1.912,0.143,2.724
												c0.103,0.897,0.505,1.793,0.317,2.741c-1.254-0.962-1.833-3.051-2.514-5.259l-0.367-1.205
												c-0.033-0.063-0.063-0.054-0.061-0.198c-0.426-0.432-0.494-0.55-0.854,0.176c-0.242,0.483-0.758,1.326-0.721,2.101
												c-0.16-0.562-0.138-1.344-0.225-2.033c-1.006-0.441-0.956,3.182-1.48,4.012c-0.046-0.967,0.044-2.114-0.489-1.311
												c-0.426,0.643-0.281,1.758-0.865,1.1c-0.168-0.189,0.004-0.583-0.273-0.664c-0.137-0.035-0.325,0.405-0.432,0.584
												c-0.262,0.418-0.598,1.141-0.833,1.699c0.079-1.321,0.884-2.593,0.783-4.015c-0.608,0.219-1.725,2.01-2.184,3.043
												c0.234-0.764,0.588-1.884,0.594-2.914c-0.333,0.61-0.938,1.475-1.322,1.799c0.142-1.515,1.265-2.333,1.841-3.169
												c0.564-0.814,2.229-2.72,2.048-4.573c-0.764-0.218-1.58,1.147-2.209,1.854c-0.533,0.594-1.058,2.309-1.573,2.506
												c0.036-1.013,0.476-1.818,0.441-2.932c-0.371,0.332-0.727,0.78-1.07,1.174c-0.352,0.405-0.858,1.38-1.271,1.345
												c0.425-1.112,1.13-1.696,0.984-3.364c-1.166-0.379-2.227,2.969-3.409,2.574c0.074-1.112,1.686-2.498,2.167-3.031
												c0.711-0.783,2.255-3.146,1.954-5.365c-0.585,0.355-1.007,0.91-1.615,1.046c0.228-1.132,1.078-3.29-0.041-2.504
												c-0.519,0.364-1.21,1.578-1.772,1.52c-0.015-0.999,1.058-1.569,1.397-1.916c0.796-0.815,1.303-1.844,2.093-2.455
												c0.363-0.275,0.795-0.639,1.14-0.992c0.486-0.498,0.604-1.132,0.968-1.773c0.017-0.188,0.013-0.437-0.006-0.624
												c-0.284-0.021-0.496,0.33-0.785,0.299c0.09-1.151,1.871-1.839,2.366-2.377c0.674-0.736,2.121-2.465,2.242-4.292
												c-0.789-0.087-1.454,0.278-2.188,0.542c-0.392,0.142-0.805,0.283-1.2,0.445c-0.607,0.248-0.551-0.044-0.558-1.019
												c-0.504,0.547-1.127,0.8-1.586,1.528c0.15-0.804,0.604-1.541,0.762-2.369c-0.62,0.775-1.534,0.9-2.228,1.597
												c0.156-0.436,0.349-1.01,0.28-1.631c-0.103-0.929-0.291-0.574-0.657-0.299c-0.335,0.257-1.378,1.752-1.642,1.205
												c0.356-1.084,1.308-1.701,1.844-2.292c0.569-0.636,1.162-1.24,1.779-1.745c0.688-0.563,1.382-1.246,2.009-1.926
												c0.464-0.51,1.311-2.102,1.258-3.363c-0.642-0.253-0.957,1.157-1.527,1.065c0.293-0.891,1.024-1.354,1.38-2.147
												c0.501-1.113,0.784-2.438,0.728-4.072c-0.523-0.136-1.153,0.843-1.622,1.204c-0.657,0.499-1.559-0.185-1.785,1.828
												c-0.066-0.801,0.107-1.624-0.376-1.422c-0.364,0.153-0.78,1.032-1.079,1.454c-0.329,0.477-0.931,1.454-0.907,0.283
												c0.017-0.957,0.375-1.308,0.324-2.46c-0.622-0.214-1.169,1.144-1.73,0.842c0.216-0.965,1.228-1.603,1.672-1.85
												c0.736-0.407,1.499-0.831,2.196-1.394c0.745-0.6,1.491-1.308,2.218-2.112c0.526-0.586,1.802-2.415,1.639-3.946
												c-0.263,0.425-0.584,0.843-0.75,1.489c0.178-0.646,0.645-1.585,0.538-2.476c-0.472,0.734-1.088,1.221-1.568,1.849
												c-0.491,0.637-1.176,1.95-1.784,1.457c0.266,0,0.476-0.263,0.739-0.262c0.157-0.223,0.427-0.497,0.554-0.947
												c0.354-0.263,0.555-1.053,0.821-1.644c0.459-1.01,1.051-2.024,1.319-3.39c-0.263,0.511-1.073,1.717-1.401,1.392
												c0.582-1.321,2.667-4.327,2.466-6.573c-0.57,0.664-1.115,1.646-1.711,2.319c-0.437,0.49-1.607,1.605-1.459,3.029
												c0.015-0.003,0.124-0.003,0.136,0c0.009-0.594,0-1.212-0.025-1.808c-0.327-0.198-0.757,0.698-0.875,1.186
												c-0.133-1.683-1.2,1.078-1.581,1.289c0.041-0.59,0.137-1.185,0.163-1.815c-0.466,0.5-0.9,1.311-1.415,1.595
												c-0.014-1.368,0.864-2.221,0.686-3.81c-0.563,0.004-0.926,0.917-1.531,0.845c0.121-0.609,1.068-1.094,1.391-1.388
												c0.454-0.411,0.813-0.919,1.273-1.422c0.821-0.896,2.498-2.496,2.889-4.518c-0.205,0.517-0.785,1.301-1.128,1.18
												c0.089-0.289,0.21-0.612,0.28-0.953c-0.258,0.162-0.557,0.097-0.831,0.097c0.979-0.202,3.141-3.529,2.915-5.998
												c-0.268,0.377-0.582,0.783-0.881,1.157c-0.017-0.46,0.071-0.826,0.135-1.271c-0.389,0.531-1.114,1.357-1.589,1.149
												c0.465-0.983,1.194-1.755,1.711-2.719c0.447-0.837,1.549-3.064,1.256-4.499c-0.318,0.979-1.521,2.494-2.121,2.397
												c0.217-0.772,0.47-1.597,0.646-2.462c-0.108,0.073-0.238,0.191-0.33,0.304c-0.174,0.473-0.621,0.887-0.94,0.84
												c-0.103-0.946,0.579-1.311,0.867-1.65c0.437-0.518,0.761-1.033,1.134-1.733c0.577-1.095,1.247-2.36,1.084-4.27
												c-0.173,0.317-0.399,0.685-0.627,0.735c0.084-0.842,0.358-1.507,0.13-2.384c-0.179,0.479-0.394,1.104-0.7,0.735
												c0.57-1.496,0.843-4.135,1.167-6.009C596.542,411.702,596.964,410.685,597.032,410.821"/>
										</defs>
										<clipPath id="SVGID_105_">
											<use xlink:href="#SVGID_104_"  overflow="visible"/>
										</clipPath>
										
											<linearGradient id="SVGID_106_" gradientUnits="userSpaceOnUse" x1="953.7031" y1="479.9741" x2="954.3115" y2="479.9741" gradientTransform="matrix(41.5158 -0.062 0.5415 41.152 -39267.7734 -19235.957)">
											<stop  offset="0" style="stop-color:#00AD1C"/>
											<stop  offset="1" style="stop-color:#00851E"/>
										</linearGradient>
										<polygon clip-path="url(#SVGID_105_)" fill="url(#SVGID_106_)" points="585.165,410.686 611.683,410.647 612.896,502.844 
											586.377,502.883 										"/>
									</g>
								</g>
							</g>
						</g>
					</g>
				</g>
			</g>
		</g>
	</g>
</g>
</svg>
