<?xml version="1.0" encoding="utf-8"?>
<!-- Generator: Adobe Illustrator 16.0.0, SVG Export Plug-In . SVG Version: 6.00 Build 0)  -->
<!DOCTYPE svg PUBLIC "-//W3C//DTD SVG 1.1//EN" "http://www.w3.org/Graphics/SVG/1.1/DTD/svg11.dtd">
<svg version="1.1" id="Слой_1" xmlns="http://www.w3.org/2000/svg" xmlns:xlink="http://www.w3.org/1999/xlink" x="0px" y="0px"
	 width="1049.053px" height="454.339px" viewBox="0 0 1049.053 454.339" enable-background="new 0 0 1049.053 454.339"
	 xml:space="preserve">
<g>
	<path fill="#E6D95B" d="M772.864,364.681c-41.266-18.084-99.691-76.42-103.186-88.563c-4.066-14.139,7.943-21.932,17.705-27.988
		c8.92-5.537,26.521-9.801,26.521-9.801l-11.861-0.656c-19.932,0.572-44.426,16.658-61.971,26.373
		c-14.174,7.852-33.16,16.182-47.83,22.314c-14.672,6.139-59.412,37.453-136.03,60.109C340.563,380.671,0,454.339,0,454.339
		l56.293-0.043l373.533,0.043c0,0,137.293-26.4,192.901-98.109c32.354,62.148,94.365,98.109,94.365,98.109h185.948h146.012
		C1049.052,454.339,838.609,393.493,772.864,364.681"/>
	<g>
		<g>
			<g>
				<g>
					<defs>
						<rect id="SVGID_1_" x="843.31" y="306.952" width="9.633" height="9.777"/>
					</defs>
					<clipPath id="SVGID_2_">
						<use xlink:href="#SVGID_1_"  overflow="visible"/>
					</clipPath>
					<path clip-path="url(#SVGID_2_)" fill="#EED37C" d="M847.496,311.458c-1.445-7.727-7.6-0.49-0.604,0.713
						c-6.996-1.203-2.023,6.893,0.486,0.803c-2.51,6.09,6.725,3.855,0.918-0.217c5.807,4.072,6.543-5.393,0.074-0.936
						C854.839,307.364,846.05,303.731,847.496,311.458 M847.978,311.704c0.352,0.135,0.508,0.529,0.373,0.871
						c-0.145,0.334-0.535,0.496-0.861,0.359c-0.35-0.152-0.514-0.535-0.369-0.875C847.251,311.722,847.644,311.552,847.978,311.704"
						/>
				</g>
			</g>
		</g>
		<g>
			<g>
				<g>
					<defs>
						<rect id="SVGID_3_" x="948.716" y="357.614" width="9.639" height="9.785"/>
					</defs>
					<clipPath id="SVGID_4_">
						<use xlink:href="#SVGID_3_"  overflow="visible"/>
					</clipPath>
					<path clip-path="url(#SVGID_4_)" fill="#EED37C" d="M952.908,362.12c-1.445-7.725-7.609-0.492-0.607,0.715
						c-7.002-1.207-2.023,6.898,0.492,0.809c-2.518,6.092,6.727,3.854,0.92-0.227c5.807,4.08,6.537-5.393,0.064-0.934
						C960.25,358.026,951.462,354.397,952.908,362.12 M953.396,362.374c0.338,0.129,0.5,0.527,0.361,0.863s-0.527,0.502-0.863,0.359
						c-0.342-0.143-0.506-0.531-0.367-0.865C952.667,362.386,953.062,362.222,953.396,362.374"/>
				</g>
			</g>
		</g>
		<g>
			<g>
				<g>
					<defs>
						<rect id="SVGID_5_" x="795.944" y="301.097" width="9.639" height="9.783"/>
					</defs>
					<clipPath id="SVGID_6_">
						<use xlink:href="#SVGID_5_"  overflow="visible"/>
					</clipPath>
					<path clip-path="url(#SVGID_6_)" fill="#EED37C" d="M800.139,305.599c-1.451-7.721-7.609-0.49-0.609,0.717
						c-7-1.207-2.025,6.896,0.488,0.809c-2.514,6.088,6.729,3.859,0.922-0.229c5.807,4.088,6.541-5.391,0.064-0.932
						C807.481,301.505,798.688,297.878,800.139,305.599 M800.622,305.847c0.342,0.141,0.502,0.535,0.363,0.871
						c-0.145,0.336-0.521,0.498-0.859,0.355c-0.344-0.139-0.506-0.531-0.367-0.865C799.889,305.864,800.29,305.7,800.622,305.847"/>
				</g>
			</g>
		</g>
		<g>
			<g>
				<g>
					<defs>
						<rect id="SVGID_7_" x="878.974" y="324.442" width="10.41" height="10.223"/>
					</defs>
					<clipPath id="SVGID_8_">
						<use xlink:href="#SVGID_7_"  overflow="visible"/>
					</clipPath>
					<path clip-path="url(#SVGID_8_)" fill="#EED37C" d="M884.119,329.298c5.705-6.094-4.361-6.814-0.996-0.076
						c-3.365-6.738-7.168,2.617-0.375,0.932c-6.793,1.686,0.922,8.182,0.766,0.643c0.156,7.539,8.732,2.211,0.852-0.527
						C892.246,333.007,889.824,323.204,884.119,329.298 M884.216,329.866c0.096,0.381-0.137,0.764-0.514,0.861
						c-0.377,0.092-0.76-0.137-0.852-0.516c-0.096-0.383,0.129-0.768,0.512-0.855C883.74,329.257,884.13,329.485,884.216,329.866"/>
				</g>
			</g>
		</g>
		<g>
			<g>
				<g>
					<defs>
						<rect id="SVGID_9_" x="839.441" y="336.435" width="7.975" height="8.207"/>
					</defs>
					<clipPath id="SVGID_10_">
						<use xlink:href="#SVGID_9_"  overflow="visible"/>
					</clipPath>
					<path clip-path="url(#SVGID_10_)" fill="#EED37C" d="M843.517,340.126c2.127-6.229-5.336-3.488-0.734,0.273
						c-4.602-3.764-4.316,4.188,0.027,0.781c-4.346,3.406,3.303,5.588,0.752,0.215c2.551,5.373,6.992-1.223,0.439-0.652
						C850.554,340.175,845.644,333.899,843.517,340.126 M843.775,340.505c0.186,0.242,0.145,0.592-0.096,0.785
						c-0.242,0.186-0.592,0.146-0.781-0.096c-0.195-0.242-0.15-0.6,0.09-0.785C843.23,340.224,843.589,340.259,843.775,340.505"/>
				</g>
			</g>
		</g>
		<g>
			<g>
				<g>
					<defs>
						<rect id="SVGID_11_" x="896.191" y="343.263" width="7.98" height="8.199"/>
					</defs>
					<clipPath id="SVGID_12_">
						<use xlink:href="#SVGID_11_"  overflow="visible"/>
					</clipPath>
					<path clip-path="url(#SVGID_12_)" fill="#EED37C" d="M900.267,346.956c2.135-6.229-5.332-3.496-0.729,0.27
						c-4.604-3.766-4.32,4.184,0.014,0.783c-4.334,3.4,3.32,5.584,0.768,0.213c2.553,5.371,6.988-1.223,0.438-0.65
						C907.306,346.999,902.4,340.729,900.267,346.956 M900.527,347.333c0.184,0.24,0.148,0.59-0.098,0.785
						c-0.242,0.182-0.588,0.143-0.779-0.098c-0.195-0.244-0.152-0.602,0.094-0.787C899.982,347.048,900.339,347.087,900.527,347.333
						"/>
				</g>
			</g>
		</g>
		<g>
			<g>
				<g>
					<defs>
						<rect id="SVGID_13_" x="758.473" y="268.897" width="7.979" height="8.203"/>
					</defs>
					<clipPath id="SVGID_14_">
						<use xlink:href="#SVGID_13_"  overflow="visible"/>
					</clipPath>
					<path clip-path="url(#SVGID_14_)" fill="#EED37C" d="M762.553,272.591c2.131-6.225-5.342-3.496-0.738,0.27
						c-4.604-3.766-4.311,4.186,0.025,0.787c-4.336,3.398,3.311,5.578,0.758,0.209c2.553,5.369,6.988-1.221,0.434-0.65
						C769.586,272.636,764.684,266.366,762.553,272.591 M762.803,272.964c0.191,0.246,0.15,0.6-0.094,0.785
						c-0.242,0.188-0.588,0.146-0.777-0.094c-0.193-0.246-0.152-0.596,0.096-0.777C762.262,272.687,762.622,272.729,762.803,272.964
						"/>
				</g>
			</g>
		</g>
		<g>
			<g>
				<g>
					<defs>
						<rect id="SVGID_15_" x="934.572" y="372.788" width="7.977" height="8.199"/>
					</defs>
					<clipPath id="SVGID_16_">
						<use xlink:href="#SVGID_15_"  overflow="visible"/>
					</clipPath>
					<path clip-path="url(#SVGID_16_)" fill="#EED37C" d="M938.648,376.479c2.133-6.223-5.332-3.496-0.736,0.27
						c-4.596-3.766-4.316,4.188,0.025,0.779c-4.342,3.406,3.311,5.588,0.764,0.219c2.547,5.369,6.982-1.225,0.434-0.654
						C945.683,376.522,940.781,370.257,938.648,376.479 M938.904,376.851c0.186,0.244,0.152,0.602-0.102,0.789
						c-0.234,0.184-0.582,0.146-0.77-0.098c-0.195-0.244-0.154-0.594,0.096-0.779C938.365,376.575,938.718,376.614,938.904,376.851"
						/>
				</g>
			</g>
		</g>
		<g>
			<g>
				<g>
					<defs>
						<rect id="SVGID_17_" x="796.586" y="284.153" width="7.979" height="8.203"/>
					</defs>
					<clipPath id="SVGID_18_">
						<use xlink:href="#SVGID_17_"  overflow="visible"/>
					</clipPath>
					<path clip-path="url(#SVGID_18_)" fill="#EED37C" d="M800.668,287.849c2.123-6.225-5.342-3.496-0.736,0.266
						c-4.605-3.762-4.32,4.189,0.02,0.785c-4.34,3.404,3.311,5.588,0.762,0.215c2.549,5.373,6.99-1.223,0.436-0.645
						C807.704,287.892,802.792,281.624,800.668,287.849 M800.924,288.22c0.188,0.25,0.141,0.598-0.1,0.787
						c-0.24,0.191-0.59,0.148-0.777-0.094c-0.189-0.246-0.152-0.6,0.09-0.781C800.379,287.94,800.731,287.979,800.924,288.22"/>
				</g>
			</g>
		</g>
		<g>
			<g>
				<g>
					<defs>
						<rect id="SVGID_19_" x="761.768" y="247.347" width="4.926" height="5.066"/>
					</defs>
					<clipPath id="SVGID_20_">
						<use xlink:href="#SVGID_19_"  overflow="visible"/>
					</clipPath>
					<path clip-path="url(#SVGID_20_)" fill="#EED37C" d="M764.288,249.628c1.313-3.85-3.301-2.156-0.457,0.168
						c-2.844-2.324-2.662,2.584,0.018,0.479c-2.68,2.105,2.043,3.453,0.463,0.129c1.58,3.324,4.318-0.75,0.273-0.398
						C768.629,249.653,765.602,245.778,764.288,249.628 M764.444,249.86c0.109,0.156,0.084,0.361-0.064,0.488
						c-0.148,0.105-0.365,0.084-0.477-0.064c-0.119-0.148-0.09-0.369,0.059-0.484C764.102,249.681,764.325,249.71,764.444,249.86"/>
				</g>
			</g>
		</g>
		<g>
			<g>
				<g>
					<defs>
						<rect id="SVGID_21_" x="891.908" y="378.835" width="4.928" height="5.063"/>
					</defs>
					<clipPath id="SVGID_22_">
						<use xlink:href="#SVGID_21_"  overflow="visible"/>
					</clipPath>
					<path clip-path="url(#SVGID_22_)" fill="#EED37C" d="M894.427,381.116c1.314-3.846-3.297-2.158-0.455,0.16
						c-2.842-2.318-2.664,2.588,0.016,0.488c-2.68,2.1,2.043,3.445,0.471,0.127c1.572,3.318,4.314-0.756,0.268-0.4
						C898.773,381.138,895.74,377.272,894.427,381.116 M894.583,381.343c0.111,0.156,0.094,0.373-0.059,0.486
						c-0.148,0.117-0.369,0.092-0.48-0.057c-0.119-0.154-0.096-0.363,0.059-0.486C894.25,381.175,894.464,381.194,894.583,381.343"
						/>
				</g>
			</g>
		</g>
		<g>
			<g>
				<g>
					<defs>
						<rect id="SVGID_23_" x="973.302" y="380.737" width="4.928" height="5.066"/>
					</defs>
					<clipPath id="SVGID_24_">
						<use xlink:href="#SVGID_23_"  overflow="visible"/>
					</clipPath>
					<path clip-path="url(#SVGID_24_)" fill="#EED37C" d="M975.82,383.021c1.318-3.852-3.297-2.156-0.447,0.162
						c-2.85-2.318-2.672,2.586,0.012,0.484c-2.684,2.102,2.041,3.451,0.469,0.135c1.572,3.316,4.314-0.758,0.27-0.402
						C980.166,383.044,977.138,379.169,975.82,383.021 M975.98,383.251c0.117,0.154,0.09,0.361-0.061,0.49
						c-0.15,0.109-0.361,0.086-0.477-0.064c-0.115-0.148-0.1-0.369,0.063-0.482C975.642,383.073,975.865,383.104,975.98,383.251"/>
				</g>
			</g>
		</g>
		<g>
			<g>
				<g>
					<defs>
						<rect id="SVGID_25_" x="847.691" y="276.683" width="4.928" height="5.066"/>
					</defs>
					<clipPath id="SVGID_26_">
						<use xlink:href="#SVGID_25_"  overflow="visible"/>
					</clipPath>
					<path clip-path="url(#SVGID_26_)" fill="#EED37C" d="M850.21,278.964c1.322-3.846-3.299-2.158-0.459,0.166
						c-2.84-2.324-2.66,2.586,0.018,0.484c-2.678,2.102,2.051,3.447,0.471,0.129c1.58,3.318,4.316-0.754,0.27-0.396
						C854.556,278.989,851.533,275.118,850.21,278.964 M850.373,279.204c0.109,0.148,0.084,0.355-0.064,0.479
						c-0.146,0.111-0.363,0.086-0.477-0.064c-0.117-0.148-0.096-0.363,0.061-0.48C850.033,279.021,850.251,279.05,850.373,279.204"
						/>
				</g>
			</g>
		</g>
	</g>
	<g>
		<g>
			<g>
				<g>
					<defs>
						<rect id="SVGID_27_" x="376.973" y="296.12" width="12.248" height="10.756"/>
					</defs>
					<clipPath id="SVGID_28_">
						<use xlink:href="#SVGID_27_"  overflow="visible"/>
					</clipPath>
					<path clip-path="url(#SVGID_28_)" fill="#EED37C" d="M382.376,301.718c-4.35,8.191-9.36-0.543-0.49-0.865
						c-8.87,0.322-0.131-7.783,0.86-0.803c-0.991-6.98,9.426-3.246,1.03,0.373c8.396-3.619,6.092,6.791-0.232,1.027
						C389.869,307.214,378.026,309.909,382.376,301.718 M383.044,301.519c0.462-0.104,0.788-0.506,0.738-0.896
						c-0.06-0.387-0.473-0.615-0.929-0.51c-0.46,0.109-0.79,0.508-0.731,0.891C382.172,301.399,382.592,301.63,383.044,301.519"/>
				</g>
			</g>
		</g>
		<g>
			<g>
				<g>
					<defs>
						<rect id="SVGID_29_" x="531.807" y="271.155" width="12.25" height="10.752"/>
					</defs>
					<clipPath id="SVGID_30_">
						<use xlink:href="#SVGID_29_"  overflow="visible"/>
					</clipPath>
					<path clip-path="url(#SVGID_30_)" fill="#EED37C" d="M537.208,276.751c-4.344,8.193-9.357-0.547-0.494-0.863
						c-8.863,0.316-0.121-7.781,0.867-0.805c-0.988-6.979,9.424-3.244,1.033,0.371c8.391-3.615,6.092,6.789-0.23,1.025
						C544.706,282.243,532.864,284.944,537.208,276.751 M537.881,276.55c0.459-0.104,0.783-0.504,0.734-0.896
						c-0.064-0.385-0.469-0.617-0.924-0.512c-0.469,0.111-0.795,0.51-0.736,0.896C537.01,276.429,537.424,276.663,537.881,276.55"/>
				</g>
			</g>
		</g>
		<g>
			<g>
				<g>
					<defs>
						<rect id="SVGID_31_" x="276.516" y="295.901" width="12.25" height="10.752"/>
					</defs>
					<clipPath id="SVGID_32_">
						<use xlink:href="#SVGID_31_"  overflow="visible"/>
					</clipPath>
					<path clip-path="url(#SVGID_32_)" fill="#EED37C" d="M281.917,301.499c-4.345,8.189-9.356-0.545-0.493-0.867
						c-8.864,0.322-0.125-7.781,0.861-0.803c-0.985-6.98,9.432-3.244,1.04,0.371c8.392-3.615,6.086,6.789-0.235,1.023
						C289.411,306.989,277.572,309.69,281.917,301.499 M282.588,301.298c0.464-0.102,0.784-0.502,0.733-0.898
						c-0.06-0.385-0.465-0.617-0.926-0.504c-0.461,0.104-0.79,0.502-0.729,0.887C281.719,301.171,282.13,301.409,282.588,301.298"/>
				</g>
			</g>
		</g>
		<g>
			<g>
				<g>
					<defs>
						<rect id="SVGID_33_" x="426.088" y="281.653" width="12.869" height="11.184"/>
					</defs>
					<clipPath id="SVGID_34_">
						<use xlink:href="#SVGID_33_"  overflow="visible"/>
					</clipPath>
					<path clip-path="url(#SVGID_34_)" fill="#EED37C" d="M432.649,287.509c4.837,7.436-7.567,6.789-1.225-0.064
						c-6.343,6.854-7.791-3.855-0.145-1.059c-7.646-2.797,3.87-8.762,1.143-0.594c2.728-8.168,11.295-1.162,0.845,0.689
						C443.718,284.632,437.486,294.944,432.649,287.509 M432.963,286.901c0.238-0.402,0.087-0.85-0.342-1.008
						c-0.419-0.152-0.958,0.037-1.204,0.443c-0.241,0.396-0.092,0.846,0.335,1.004C432.176,287.491,432.726,287.302,432.963,286.901
						"/>
				</g>
			</g>
		</g>
		<g>
			<g>
				<g>
					<defs>
						<rect id="SVGID_35_" x="382.375" y="264.989" width="10.297" height="8.906"/>
					</defs>
					<clipPath id="SVGID_36_">
						<use xlink:href="#SVGID_35_"  overflow="visible"/>
					</clipPath>
					<path clip-path="url(#SVGID_36_)" fill="#EED37C" d="M387.216,269.987c0.48,7.072-7.626,3.045-0.801-0.393
						c-6.826,3.438-3.804-5.164,0.294-0.854c-4.098-4.313,5.879-5.604,0.99-0.123c4.889-5.48,8.037,2.314,0.31,0.77
						C395.737,270.935,387.697,277.06,387.216,269.987 M387.654,269.616c0.306-0.24,0.375-0.625,0.144-0.867
						c-0.224-0.234-0.667-0.242-0.97-0.006c-0.313,0.236-0.383,0.631-0.154,0.863C386.901,269.843,387.343,269.851,387.654,269.616"
						/>
				</g>
			</g>
		</g>
		<g>
			<g>
				<g>
					<defs>
						<rect id="SVGID_37_" x="462.791" y="290.351" width="10.299" height="8.904"/>
					</defs>
					<clipPath id="SVGID_38_">
						<use xlink:href="#SVGID_37_"  overflow="visible"/>
					</clipPath>
					<path clip-path="url(#SVGID_38_)" fill="#EED37C" d="M467.633,295.349c0.48,7.072-7.626,3.043-0.799-0.398
						c-6.827,3.441-3.808-5.162,0.292-0.846c-4.101-4.316,5.882-5.602,0.991-0.123c4.891-5.479,8.036,2.314,0.307,0.768
						C476.153,296.294,468.113,302.421,467.633,295.349 M468.07,294.978c0.309-0.238,0.38-0.625,0.144-0.869
						c-0.225-0.236-0.661-0.244-0.969-0.004c-0.315,0.234-0.382,0.623-0.155,0.863C467.317,295.204,467.762,295.214,468.07,294.978"
						/>
				</g>
			</g>
		</g>
		<g>
			<g>
				<g>
					<defs>
						<rect id="SVGID_39_" x="224.852" y="323.103" width="10.297" height="8.904"/>
					</defs>
					<clipPath id="SVGID_40_">
						<use xlink:href="#SVGID_39_"  overflow="visible"/>
					</clipPath>
					<path clip-path="url(#SVGID_40_)" fill="#EED37C" d="M229.693,328.101c0.479,7.07-7.627,3.045-0.798-0.396
						c-6.829,3.439-3.808-5.164,0.291-0.852c-4.099-4.313,5.88-5.6,0.993-0.119c4.887-5.479,8.035,2.314,0.305,0.764
						C238.214,329.048,230.172,335.171,229.693,328.101 M230.131,327.729c0.306-0.238,0.376-0.625,0.143-0.871
						c-0.227-0.236-0.661-0.24-0.968,0c-0.317,0.232-0.387,0.623-0.155,0.859C229.379,327.958,229.82,327.964,230.131,327.729"/>
				</g>
			</g>
		</g>
		<g>
			<g>
				<g>
					<defs>
						<rect id="SVGID_41_" x="519.967" y="254.128" width="10.297" height="8.902"/>
					</defs>
					<clipPath id="SVGID_42_">
						<use xlink:href="#SVGID_41_"  overflow="visible"/>
					</clipPath>
					<path clip-path="url(#SVGID_42_)" fill="#EED37C" d="M524.807,259.124c0.48,7.068-7.626,3.045-0.801-0.395
						c-6.827,3.439-3.803-5.164,0.295-0.85c-4.098-4.314,5.881-5.602,0.992-0.123c4.891-5.479,8.037,2.313,0.307,0.766
						C533.331,260.071,525.288,266.194,524.807,259.124 M525.241,258.755c0.309-0.236,0.377-0.621,0.148-0.869
						c-0.229-0.234-0.666-0.242-0.973,0c-0.311,0.229-0.385,0.623-0.148,0.861C524.493,258.985,524.938,258.989,525.241,258.755"/>
				</g>
			</g>
		</g>
		<g>
			<g>
				<g>
					<defs>
						<rect id="SVGID_43_" x="313.821" y="306.196" width="10.295" height="8.904"/>
					</defs>
					<clipPath id="SVGID_44_">
						<use xlink:href="#SVGID_43_"  overflow="visible"/>
					</clipPath>
					<path clip-path="url(#SVGID_44_)" fill="#EED37C" d="M318.661,311.194c0.479,7.07-7.623,3.043-0.799-0.395
						c-6.823,3.438-3.808-5.162,0.295-0.855c-4.103-4.309,5.88-5.6,0.985-0.119c4.895-5.479,8.037,2.314,0.31,0.768
						C327.18,312.14,319.139,318.265,318.661,311.194 M319.097,310.823c0.31-0.244,0.377-0.631,0.146-0.867
						c-0.224-0.238-0.661-0.248-0.968-0.01c-0.318,0.24-0.385,0.629-0.152,0.867C318.343,311.048,318.786,311.058,319.097,310.823"
						/>
				</g>
			</g>
		</g>
		<g>
			<g>
				<g>
					<defs>
						<rect id="SVGID_45_" x="258.831" y="344.505" width="6.36" height="5.498"/>
					</defs>
					<clipPath id="SVGID_46_">
						<use xlink:href="#SVGID_45_"  overflow="visible"/>
					</clipPath>
					<path clip-path="url(#SVGID_46_)" fill="#EED37C" d="M261.824,347.591c0.297,4.365-4.711,1.879-0.5-0.244
						c-4.211,2.123-2.347-3.189,0.183-0.523c-2.53-2.666,3.632-3.461,0.611-0.076c3.021-3.385,4.966,1.434,0.194,0.475
						C267.083,348.179,262.121,351.956,261.824,347.591 M262.09,347.362c0.189-0.152,0.232-0.387,0.094-0.537
						c-0.147-0.146-0.413-0.15-0.603,0c-0.192,0.146-0.234,0.383-0.092,0.529C261.626,347.501,261.895,347.503,262.09,347.362"/>
				</g>
			</g>
		</g>
		<g>
			<g>
				<g>
					<defs>
						<rect id="SVGID_47_" x="469.078" y="254.304" width="6.359" height="5.498"/>
					</defs>
					<clipPath id="SVGID_48_">
						<use xlink:href="#SVGID_47_"  overflow="visible"/>
					</clipPath>
					<path clip-path="url(#SVGID_48_)" fill="#EED37C" d="M472.068,257.388c0.301,4.369-4.709,1.883-0.493-0.242
						c-4.216,2.125-2.353-3.188,0.184-0.525c-2.536-2.662,3.63-3.461,0.609-0.072c3.021-3.389,4.961,1.43,0.188,0.471
						C477.33,257.976,472.369,261.757,472.068,257.388 M472.341,257.159c0.187-0.15,0.233-0.387,0.087-0.537
						c-0.143-0.143-0.409-0.146-0.596,0.002c-0.195,0.143-0.241,0.381-0.093,0.525C471.874,257.302,472.149,257.304,472.341,257.159
						"/>
				</g>
			</g>
		</g>
		<g>
			<g>
				<g>
					<defs>
						<rect id="SVGID_49_" x="568.952" y="254.19" width="6.357" height="5.498"/>
					</defs>
					<clipPath id="SVGID_50_">
						<use xlink:href="#SVGID_49_"  overflow="visible"/>
					</clipPath>
					<path clip-path="url(#SVGID_50_)" fill="#EED37C" d="M571.942,257.276c0.299,4.367-4.715,1.881-0.498-0.246
						c-4.217,2.127-2.346-3.188,0.184-0.521c-2.527-2.664,3.635-3.461,0.611-0.072c3.021-3.389,4.965,1.43,0.188,0.473
						C577.204,257.864,572.241,261.644,571.942,257.276 M572.215,257.048c0.184-0.146,0.229-0.385,0.088-0.537
						c-0.141-0.146-0.414-0.146-0.598,0c-0.197,0.146-0.24,0.381-0.092,0.531C571.743,257.192,572.022,257.194,572.215,257.048"/>
				</g>
			</g>
		</g>
		<g>
			<g>
				<g>
					<defs>
						<rect id="SVGID_51_" x="372.568" y="324.774" width="6.36" height="5.498"/>
					</defs>
					<clipPath id="SVGID_52_">
						<use xlink:href="#SVGID_51_"  overflow="visible"/>
					</clipPath>
					<path clip-path="url(#SVGID_52_)" fill="#EED37C" d="M375.563,327.86c0.294,4.367-4.717,1.881-0.5-0.244
						c-4.217,2.125-2.348-3.188,0.184-0.523c-2.531-2.664,3.63-3.459,0.611-0.072c3.02-3.387,4.966,1.43,0.188,0.471
						C380.823,328.448,375.856,332.228,375.563,327.86 M375.833,327.628c0.183-0.146,0.229-0.385,0.088-0.535
						c-0.145-0.145-0.416-0.148-0.597,0c-0.198,0.146-0.245,0.383-0.096,0.533C375.363,327.776,375.636,327.778,375.833,327.628"/>
				</g>
			</g>
		</g>
	</g>
</g>
<path opacity="0.1" fill="#534F44" d="M673.044,304.86c-5.182-5.9-16.457-8.033-25.102-8.143
	c-8.574-0.109-17.029,1.031-25.296,2.668c-4.477,0.426-8.891,1.414-13.196,2.396c-12.823,2.928-25.103,6.867-37.373,10.912
	c-4.612,1.52-7.696,5.385-8.069,9.14c-0.518,5.217,3.666,9.383,9.697,11.322c11.276,3.627,24.249,5.154,36.203,6.68
	c14.415,1.84,31.345,2.881,45.519-0.357c7.742-1.77,16.268-4.791,20.098-10.672C680.916,320.531,679.744,312.489,673.044,304.86"/>
<g>
	<path fill="#1D5164" d="M651.998,320.032c0,0,4.17,4.59,6.365,7.002c2.193,2.414-1.319,4.391-6.365,2.635
		c-5.051-1.758-7.173-4.814-7.173-10.529L651.998,320.032z"/>
	<path fill="#1D5164" d="M597.859,320.038c0,0-4.446,4.32-6.785,6.592c-2.342,2.271,1.041,4.465,6.188,3.023
		c5.147-1.438,7.456-4.359,7.811-10.063L597.859,320.038z"/>
	<path fill="#534F44" d="M624.56,234.636c-46.788,0-65.003-4.961-69.274-6.389c0.175,0.311,0.343,0.621,0.521,0.93
		c-0.179-0.309-0.347-0.619-0.521-0.93c-0.717-0.238-1.043-0.379-1.043-0.379c14.097,18.432,36.683,24.271,36.683,24.271
		l6.769,67.869l7.317,0.338l3.049-65.986c8.56,1.977,33.571-0.186,33.571-0.186l3.237,65.852l7.127,0.006l6.584-67.508
		c15.802-5.27,30.064-23.35,30.064-23.35s-0.869,0.502-3.601,1.201C678.767,231.983,662.644,234.636,624.56,234.636"/>
	<path fill="#F7DDBF" d="M502.33,203.345c-0.728-0.238-1.53-0.355-2.08-0.469c-1.759-0.369-3.555-0.631-5.354-0.51
		c-1.276,0.084-2.953,0.65-2.733,2.254c0.124,0.92,0.649,1.482,1.319,1.896c-1.136,0.379-1.903,1.314-1.813,2.563
		c0.033,0.469,0.216,0.934,0.493,1.344c0.144,0.396,0.451,0.746,0.902,0.941c0.072,0.029,0.145,0.059,0.219,0.088
		c0.079,0.043,0.154,0.086,0.237,0.121c-0.488,0.596-0.836,1.27-0.923,1.873c-0.149,1.043,0.618,2.314,1.755,2.393
		c0.481,0.031,0.922-0.063,1.341-0.238c-0.404,1.66,0.049,3.477,1.959,3.621c1.659,0.125,2.76-1.482,3.625-2.639
		c1.239-1.656,2.513-3.4,2.949-5.459c0.029-0.135,0.019-0.26-0.009-0.383c0.083-0.123,0.165-0.248,0.251-0.371l-2.369-6.805
		C502.098,203.566,502.194,203.476,502.33,203.345"/>
	<path fill="#F7DDBF" d="M753.177,206.609c1.112-0.67,1.758-2.021,1.34-3.396c-0.398-1.314-1.984-1.689-3.19-1.58
		c-1.207,0.111-5.15,0.773-6.998,1.373c0.085,0.078,0.139,0.127,0.139,0.127l-2.115,7.092c-0.057-0.025-0.114-0.057-0.171-0.084
		c0.264,1.074,0.774,2.17,1.479,2.867c0.545,0.539,1.021,1.107,1.551,1.658c0.463,0.479,0.953,0.859,1.617,0.986
		c0.969,0.182,2.18-0.344,2.062-1.508c-0.047-0.418-0.17-0.779-0.346-1.154c0.128,0.049,0.251,0.09,0.373,0.125
		c0.596,0.178,1.344,0.311,1.942,0.096c0.896-0.324,1.265-1.248,0.828-2.105c-0.189-0.367-0.456-0.664-0.762-0.928
		c0.28,0.016,0.555,0.012,0.8,0.002c0.727-0.031,1.618-0.123,2.155-0.676c0.699-0.719,0.526-1.732-0.093-2.439
		C753.617,206.871,753.405,206.724,753.177,206.609"/>
	<path fill="#F6FCFE" d="M744.466,203.134c0,0-0.054-0.051-0.139-0.129c-2.251-2.086-33.658-31.664-47.989-70.129
		c-1.308-6.211-2.382-9.928-2.382-9.928l-71.73,4.758l-71.729-4.758c0,0-1.541,5.328-3.174,13.893
		c-13.353,35.559-42.27,63.885-44.994,66.504c-0.136,0.131-0.231,0.221-0.231,0.221l2.369,6.807l0.063,0.18
		c13.721-7.215,27.676-23.395,39.043-39.33c-0.428,18.77,2.034,39.844,11.713,57.027c4.271,1.428,22.486,6.389,69.274,6.389
		c38.084,0,54.207-2.652,60.484-4.26l3.601-1.201c10.015-17.166,12.622-38.394,12.254-57.351
		c12.15,15.625,27.035,31.555,41.28,38.314c0.057,0.027,0.114,0.059,0.171,0.084L744.466,203.134z"/>
	<path fill="#DBDEDB" d="M550.693,120.496c0,0-2.484,3.637-3.904,10.735l59.539,15.884c0,0-0.267-14.109,5.324-16.771
		C611.652,130.343,568.794,129.013,550.693,120.496"/>
	<path fill="#DBDEDB" d="M694.437,122.949c0,0,1.482,5.484,2.407,12.666l-60.496,11.719c0,0,1.243-14.055-4.148-17.098
		C632.2,130.235,675.79,130.192,694.437,122.949"/>
	<path fill="#CF2732" d="M618.002,141.115c-2.818-1.875-1.407-9.902-1.407-9.902h5.631h5.633c0,0,1.408,8.027-1.406,9.902
		c0,0,4.223,40.932,3.752,47.504c-0.468,6.568-7.979,13.623-7.979,13.623s-7.51-7.063-7.978-13.631
		C613.778,182.039,618.002,141.115,618.002,141.115"/>
	<path fill="#F5E6C1" d="M694.044,123.164c0,0,16.989-79.125-16.88-97.494c-37.333-20.248-82.051-14.485-101.876-3.512
		c-19.826,10.973-35.125,28.408-24.791,100.791C550.498,122.949,623.091,141.439,694.044,123.164"/>
	<path fill="#B1612D" d="M630.907,0.175c-14.552,1.064-90.508,1.773-90.508,1.773l15.747,31.821c0,0,0.009-0.002,0.01-0.002
		c-4.536,8.308-8.876,21.821-9.367,43.426c0,0,1.753-31.3,16.034-44.728c18.553-3.451,71.087-12.063,96.833-4.252
		c27.928,8.473,26.975,28.748,25.198,36.558c-1.774,7.808-5.323,33.009-5.323,33.009l6.389,4.969c0,0,0-25.556,6.745-25.556
		c6.744,0,5.563,9.235,5.563,9.235C719.055,0.188,645.458-0.89,630.907,0.175"/>
	<path fill="#E8BF9E" d="M634.401,110.228c-2.885,1.238-4.188,4.514-4.004,7.568c-0.258-0.332-0.491-0.688-0.699-1.084
		c-1.653-3.162-0.53-7.879,2.946-9.371c3.337-1.432,7.188-0.652,9.129,2.535C639.518,108.958,636.853,109.175,634.401,110.228"/>
	<path fill="#FFFFFF" d="M596.422,62.175c-0.947-0.828-1.896-1.655-2.843-2.482c-2.122-1.398-4.45-2.201-6.983-2.404l-3.769,0.205
		c-2.623,0.508-4.942,1.639-6.956,3.393c-2.832,2.494-4.602,6.066-4.888,9.828c-0.296,3.884,1.022,7.801,3.599,10.725
		c0.947,0.827,1.896,1.654,2.843,2.482c2.123,1.398,4.45,2.199,6.984,2.404l3.768-0.207c2.623-0.507,4.942-1.638,6.957-3.392
		c2.832-2.495,4.601-6.065,4.887-9.827C600.318,69.015,598.999,65.099,596.422,62.175"/>
	<path fill="#367B92" d="M591.337,69.444c-0.811-0.911-1.791-1.567-2.943-1.968c-1.153-0.393-2.33-0.48-3.529-0.262
		c-0.159,0.043-0.318,0.084-0.479,0.127c-1.225,0.238-2.308,0.766-3.25,1.586c-1.323,1.164-2.148,2.834-2.283,4.591
		c-0.088,1.224,0.136,2.388,0.671,3.493c0.338,0.506,0.674,1.013,1.011,1.52c0.796,0.893,1.759,1.536,2.889,1.93
		c0.153,0.041,0.306,0.082,0.46,0.121l1.735,0.36c1.246,0.089,2.433-0.138,3.559-0.683c2.197-1.071,3.688-3.273,3.874-5.709
		C593.193,72.701,592.564,70.835,591.337,69.444"/>
	<path fill="#323527" d="M590.968,73.729c-0.121-0.364-0.242-0.729-0.362-1.093c-0.343-0.697-0.835-1.26-1.478-1.692
		c-0.734-0.373-1.207-0.688-2.06-0.709c-0.773-0.056-1.509,0.086-2.206,0.423c-0.32,0.213-0.641,0.426-0.959,0.639
		c-0.295,0.264-0.545,0.557-0.754,0.877c-1.358,1.603-1.37,4.07,0.049,5.681c0.744,0.845,1.809,1.373,2.931,1.458
		c0.78,0.057,1.523-0.086,2.229-0.428c0.702-0.346,1.272-0.844,1.71-1.492c0.344-0.422,0.594-0.954,0.737-1.475
		C591.049,75.203,591.104,74.473,590.968,73.729"/>
	<path fill="#FFFFFF" d="M654.45,63.187c-0.942-0.822-1.886-1.645-2.826-2.467c-2.111-1.391-4.424-2.188-6.941-2.391
		c-1.249,0.068-2.497,0.137-3.745,0.205c-2.605,0.504-4.91,1.629-6.914,3.371c-2.813,2.48-4.571,6.03-4.855,9.768
		c-0.295,3.861,1.016,7.752,3.575,10.658c0.941,0.824,1.885,1.646,2.826,2.467c2.109,1.392,4.423,2.188,6.94,2.392
		c1.248-0.069,2.496-0.138,3.745-0.205c2.607-0.505,4.911-1.629,6.914-3.372c2.813-2.479,4.571-6.029,4.857-9.766
		C658.32,69.985,657.009,66.093,654.45,63.187"/>
	<path fill="#367B92" d="M644.507,68.539c-3.658,0-6.902,2.342-7.197,6.188c-0.26,3.438,2.533,7.196,6.189,7.196
		c3.657,0,6.902-2.342,7.194-6.188C650.957,72.296,648.164,68.539,644.507,68.539"/>
	<path fill="#323527" d="M644.42,71.302c-5.374,0-6.025,8.348-0.628,8.348C649.167,79.649,649.817,71.302,644.42,71.302"/>
	<path fill="#E8BF9E" d="M615.679,80.151c0,0-9.937,11.962-2.981,18.035c3.076,2.687,6.104,1.915,7.516-0.64
		C621.994,94.33,622.145,85.687,615.679,80.151"/>
	<path fill="#B1612D" d="M585.297,47.38c0,0-16.326-4.614-18.633,10.647C566.665,58.028,573.23,48.623,585.297,47.38"/>
	<path fill="#B1612D" d="M637.723,43.22c0,0,15.347-7.233,20.13,7.441C657.853,50.662,649.83,42.462,637.723,43.22"/>
</g>
</svg>
